<svg width="24" height="24" viewBox="0 0 24 24" fill="none" xmlns="http://www.w3.org/2000/svg">
<path d="M21.5 1L6.5 1C4 1 2 2.8 2 5L2 18.6C2 20.8 4 22.6 6.5 22.6C8.2 22.6 9.6 21.8 10.4 20.6H21.6V1H21.5ZM19.5 12.8L14.5 7.8L19.5 2.8L19.4 2.7H19.5V12.8ZM11 11.4L13.2 9.2L16.7 12.7L11 18.5V11.4ZM16.8 2.8L11 8.6V5C11 4.2 10.7 3.4 10.3 2.8H11.2L16.8 2.8ZM6.5 3C7.9 3 9 3.9 9 5C9 6.1 7.9 7 6.5 7C5.1 7 4 6.1 4 5C4 3.9 5.1 3 6.5 3ZM6.5 9C7.4 9 8.3 8.7 9 8.3V13.8L8.7 14.1L4 9.4V8.3C4.7 8.7 5.6 9 6.5 9ZM4 18.8C4 18.7 4 18.7 4 18.6V12.2L7.3 15.5L4 18.8ZM6.5 20.6C6.1 20.6 5.6 20.5 5.3 20.3L9 16.6V18.6C9 19.7 7.9 20.6 6.5 20.6ZM13.5 18.8L18.1 14.2L19.5 15.6V18.8H13.5Z" fill="#034899"/>
</svg>
