<svg>
  <symbol id="icons_shopping-cart" width="17" height="14" viewBox="0 0 17 14" xmlns="http://www.w3.org/2000/svg">
    <path d="M0.715789,0 C0.321546,0 0,0.314453 0,0.7 C0,1.08555 0.321546,1.4 0.715789,1.4 L2.30395,1.4 L4.18289,8.75 C4.34227,9.37344 4.91266,9.8 5.56974,9.8 L13.7789,9.8 C14.4248,9.8 14.9729,9.38164 15.1434,8.77187 L17,2.1 L5.01053,2.1 L5.36842,3.5 L15.1434,3.5 L13.7789,8.4 L5.56974,8.4 L3.69079,1.05 C3.53141,0.426562 2.96102,0 2.30395,0 L0.715789,0 Z M12.8842,9.8 C11.7071,9.8 10.7368,10.7488 10.7368,11.9 C10.7368,13.0512 11.7071,14 12.8842,14 C14.0613,14 15.0316,13.0512 15.0316,11.9 C15.0316,10.7488 14.0613,9.8 12.8842,9.8 Z M6.44211,9.8 C5.26497,9.8 4.29474,10.7488 4.29474,11.9 C4.29474,13.0512 5.26497,14 6.44211,14 C7.61924,14 8.58947,13.0512 8.58947,11.9 C8.58947,10.7488 7.61924,9.8 6.44211,9.8 Z M6.44211,11.2 C6.84474,11.2 7.1579,11.5062 7.1579,11.9 C7.1579,12.2937 6.84474,12.6 6.44211,12.6 C6.03947,12.6 5.72632,12.2937 5.72632,11.9 C5.72632,11.5062 6.03947,11.2 6.44211,11.2 Z M12.8842,11.2 C13.2868,11.2 13.6,11.5062 13.6,11.9 C13.6,12.2937 13.2868,12.6 12.8842,12.6 C12.4816,12.6 12.1684,12.2937 12.1684,11.9 C12.1684,11.5062 12.4816,11.2 12.8842,11.2 Z"></path>
  </symbol>

  <symbol id="icons_compare" width="12" height="13" viewBox="0 0 12 13" xmlns="http://www.w3.org/2000/svg">
    <rect width="2" height="13"/>
    <rect x="5" y="6" width="2" height="7"/>
    <rect x="10" y="2" width="2" height="11"/>
  </symbol>

  <symbol id="icons_bookmark" width="10" height="14" viewBox="0 0 10 14" xmlns="http://www.w3.org/2000/svg">
    <path d="M8.57143 1.4V11.8769L5.56286 10.6134L5 10.3768L4.43714 10.6134L1.42857 11.8769V1.4H8.57143ZM8.57143 0H1.42857C0.642857 0 0 0.63 0 1.4V14L5 11.9L10 14V1.4C10 0.63 9.35714 0 8.57143 0Z"/>
  </symbol>

  <symbol id="icons_user" width="13" height="14" viewBox="0 0 13 14" xmlns="http://www.w3.org/2000/svg">
    <path d="M6.5 0C3.99395 0 1.95 2.00106 1.95 4.45454C1.95 5.98828 2.7498 7.35049 3.96094 8.15341C1.64277 9.12784 0 11.38 0 14H1.3C1.3 12.1605 2.29277 10.5597 3.77812 9.66477C4.21484 10.7138 5.27871 11.4545 6.5 11.4545C7.72129 11.4545 8.78516 10.7138 9.22187 9.66477C10.7072 10.5597 11.7 12.1605 11.7 14H13C13 11.38 11.3572 9.12784 9.03906 8.15341C10.2502 7.35049 11.05 5.98828 11.05 4.45454C11.05 2.00106 9.00605 0 6.5 0ZM6.5 1.27273C8.30273 1.27273 9.75 2.68963 9.75 4.45454C9.75 6.21946 8.30273 7.63636 6.5 7.63636C4.69727 7.63636 3.25 6.21946 3.25 4.45454C3.25 2.68963 4.69727 1.27273 6.5 1.27273ZM6.5 8.90909C7.0332 8.90909 7.54102 8.98366 8.02344 9.12784C7.79746 9.74183 7.2084 10.1818 6.5 10.1818C5.7916 10.1818 5.20254 9.74183 4.97656 9.12784C5.45898 8.98366 5.9668 8.90909 6.5 8.90909Z"/>
  </symbol>

  <symbol id="icons_club" width="19" height="14" viewBox="0 0 19 14" xmlns="http://www.w3.org/2000/svg">
    <path d="M18.3512 10.7622V9.34853C18.3512 5.3355 15.5244 1.8241 11.5854 0.866449C11.539 0.684039 11.4463 0.501629 11.3073 0.364821C11.0756 0.136808 10.7512 0 10.4268 0H8.57317C8.24878 0 7.97073 0.136808 7.73902 0.364821C7.6 0.501629 7.50732 0.684039 7.46098 0.866449C3.47561 1.8241 0.64878 5.3355 0.64878 9.34853V10.7622C0.278049 10.8534 0 11.1726 0 11.5375V11.9479C0 12.3127 0.231707 12.6319 0.602439 12.7687C3.05854 13.544 6.20976 14 9.5 14C12.7902 14 15.9878 13.5896 18.3976 12.7687C18.7683 12.6775 19 12.3127 19 11.9479V11.5375C19 11.1726 18.722 10.8534 18.3512 10.7622ZM12.9293 11.2182C12.9293 10.9446 12.6976 10.7166 12.4195 10.7166H1.76098V9.34853C1.76098 6.61238 3.19756 4.14984 5.56098 2.73616L5.88537 6.74919C5.93171 7.0228 6.16341 7.20521 6.39512 7.20521H6.4878C6.76585 7.15961 6.99756 6.88599 6.95122 6.61238L6.58049 2.23453C6.85854 2.09772 7.18293 2.00651 7.46098 1.91531L7.69268 9.02931C7.69268 9.66775 8.24878 10.1238 8.85122 10.1238H10.1951C10.8439 10.1238 11.3537 9.62215 11.3537 9.02931L11.5854 1.96091C11.9098 2.05212 12.1878 2.14332 12.4659 2.28013L12.2341 6.65798C12.1878 6.9316 12.3732 7.20521 12.6976 7.25081H12.7902C13.0683 7.25081 13.3 7.0684 13.3 6.79479L13.4854 2.82736C15.8488 4.19544 17.2854 6.70358 17.2854 9.39414V10.7622H15.5707C15.2927 10.7622 15.061 10.9902 15.061 11.2638C15.061 11.5375 15.2927 11.7655 15.5707 11.7655H17.9341V11.8111C15.6171 12.5407 12.6512 12.9055 9.5 12.9055C6.34878 12.9055 3.38293 12.5407 1.06585 11.8111V11.7655H12.3732C12.6976 11.7655 12.9293 11.5375 12.9293 11.2182ZM10.2878 9.02931C10.2878 9.07492 10.2415 9.12052 10.1951 9.12052H8.85122C8.80488 9.12052 8.75854 9.07492 8.75854 9.02931L8.43415 1.14007C8.43415 1.09446 8.43415 1.09446 8.48049 1.04886C8.52683 1.00326 8.52683 1.00326 8.57317 1.00326H10.4268C10.4732 1.00326 10.4732 1.00326 10.5195 1.04886C10.5659 1.09446 10.5659 1.09446 10.5659 1.14007L10.2878 9.02931Z"/>
  </symbol>

  <symbol id="icons_wallet" width="14" height="14" viewBox="0 0 14 14" xmlns="http://www.w3.org/2000/svg">
    <path d="M2.5 0.25C1.26627 0.25 0.25 1.26627 0.25 2.5V12.25C0.25 13.0787 0.92125 13.75 1.75 13.75H12.25C13.0787 13.75 13.75 13.0787 13.75 12.25V4.75C13.75 3.92125 13.0787 3.25 12.25 3.25H4H2.5C2.07623 3.25 1.75 2.92377 1.75 2.5C1.75 2.07623 2.07623 1.75 2.5 1.75H13V0.25H2.5ZM11.5 7.75C11.914 7.75 12.25 8.086 12.25 8.5C12.25 8.914 11.914 9.25 11.5 9.25C11.086 9.25 10.75 8.914 10.75 8.5C10.75 8.086 11.086 7.75 11.5 7.75Z"/>
  </symbol>

  <symbol id="icons_location" width="12" height="14" viewBox="0 0 12 14" xmlns="http://www.w3.org/2000/svg">
    <path fill-rule="evenodd" clip-rule="evenodd" d="M6 0C4.40926 0.00185268 2.88419 0.647758 1.75936 1.79601C0.634537 2.94426 0.00181488 4.50108 0 6.12495C0 11.6217 5.14286 13.7855 5.36315 13.8748C5.77196 14.0417 6.22804 14.0417 6.63685 13.8748C6.85714 13.7855 12 11.6217 12 6.12495C11.9982 4.50108 11.3655 2.94426 10.2406 1.79601C9.11581 0.647758 7.59074 0.00185268 6 0ZM6 12.2499C6 12.2499 1.71429 10.4999 1.71429 6.12495C1.71429 4.96464 2.16581 3.85185 2.96954 3.03138C3.77327 2.21092 4.86336 1.74999 6 1.74999C7.13664 1.74999 8.22673 2.21092 9.03046 3.03138C9.83419 3.85185 10.2857 4.96464 10.2857 6.12495C10.2857 10.4999 6 12.2499 6 12.2499ZM6 3.49997C5.49142 3.49997 4.99426 3.65392 4.57139 3.94236C4.14852 4.23079 3.81894 4.64076 3.62431 5.12041C3.42969 5.60006 3.37876 6.12786 3.47798 6.63705C3.5772 7.14625 3.8221 7.61398 4.18172 7.98109C4.54134 8.3482 4.99953 8.5982 5.49834 8.69949C5.99715 8.80077 6.51417 8.74879 6.98404 8.55011C7.45391 8.35144 7.85551 8.01499 8.13806 7.58332C8.42062 7.15164 8.57143 6.64412 8.57143 6.12495C8.57143 5.42876 8.30051 4.76109 7.81828 4.26881C7.33604 3.77653 6.68199 3.49997 6 3.49997ZM6 6.99994C5.83047 6.99994 5.66475 6.94862 5.5238 6.85248C5.38284 6.75633 5.27298 6.61969 5.2081 6.4598C5.14323 6.29992 5.12626 6.12399 5.15933 5.95425C5.1924 5.78452 5.27403 5.62861 5.39391 5.50624C5.51378 5.38387 5.66651 5.30053 5.83278 5.26677C5.99905 5.23301 6.17139 5.25034 6.32801 5.31657C6.48464 5.38279 6.6185 5.49494 6.71269 5.63883C6.80687 5.78272 6.85714 5.95189 6.85714 6.12495C6.85714 6.35701 6.76684 6.57957 6.60609 6.74367C6.44535 6.90776 6.22733 6.99994 6 6.99994Z"/>
  </symbol>

  <symbol id="icons_search" width="20" height="20" viewBox="0 0 20 20" xmlns="http://www.w3.org/2000/svg">
    <path d="M19.0332 17.2732L16.3995 14.6395C17.7233 12.8706 18.3279 10.666 18.0915 8.46934C17.8551 6.27269 16.7954 4.24713 15.1256 2.80043C13.4558 1.35372 11.3 0.593286 9.09205 0.672207C6.88413 0.751129 4.78807 1.66354 3.22584 3.22578C1.66361 4.78801 0.75119 6.88406 0.672269 9.09199C0.593347 11.2999 1.35378 13.4558 2.80049 15.1255C4.24719 16.7953 6.27275 17.8551 8.4694 18.0914C10.6661 18.3278 12.8707 17.7232 14.6395 16.3994L17.2732 19.0332C17.512 19.2376 17.8192 19.3445 18.1333 19.3324C18.4475 19.3202 18.7455 19.19 18.9678 18.9677C19.1901 18.7454 19.3203 18.4474 19.3324 18.1333C19.3446 17.8191 19.2377 17.512 19.0332 17.2732ZM3.16846 9.42193C3.16846 8.18757 3.53449 6.98093 4.22027 5.95459C4.90604 4.92825 5.88076 4.12832 7.02116 3.65595C8.16157 3.18358 9.41644 3.05999 10.6271 3.3008C11.8377 3.54161 12.9498 4.13602 13.8226 5.00884C14.6954 5.88167 15.2898 6.99372 15.5306 8.20436C15.7715 9.41501 15.6479 10.6699 15.1755 11.8103C14.7031 12.9507 13.9032 13.9254 12.8769 14.6112C11.8505 15.297 10.6439 15.663 9.40951 15.663C7.75428 15.663 6.16685 15.0054 4.99642 13.835C3.826 12.6646 3.16846 11.0772 3.16846 9.42193Z"/>
  </symbol>

  <symbol id="icons_tel" viewBox="0 0 9 10" xmlns="http://www.w3.org/2000/svg">
    <path d="M7.69606 6.49625C7.13475 6.01395 6.56351 5.72087 6.00928 6.20317L5.6776 6.4934C5.43521 6.70539 4.98446 7.69276 3.2424 5.67961C1.50034 3.67073 2.5365 3.35773 2.78031 3.14859L3.11341 2.85693C3.6648 2.37463 3.45643 1.76713 3.05813 1.14113L2.81858 0.762685C2.41885 0.139533 1.98228 -0.270211 1.42947 0.210669L1.13038 0.473872C0.885161 0.651713 0.201945 1.23361 0.0361018 2.33764C-0.16376 3.66219 0.46701 5.18023 1.90857 6.84482C3.34871 8.51082 4.7605 9.34738 6.09575 9.33316C7.20562 9.32035 7.8775 8.72281 8.08728 8.50513L8.38636 8.24193C8.93917 7.76105 8.59615 7.27021 8.03342 6.78791L7.69606 6.49625Z"/>
  </symbol>

  <symbol id="icons_cart" width="29" height="24" viewBox="0 0 29 24" xmlns="http://www.w3.org/2000/svg">
    <path d="M1.19298 0.333374C0.53591 0.333374 0 0.857463 0 1.50004C0 2.14262 0.53591 2.66671 1.19298 2.66671H3.83991L6.97149 14.9167C7.23712 15.9558 8.18777 16.6667 9.28289 16.6667H22.9649C24.0414 16.6667 24.9548 15.9694 25.239 14.9532L28.3333 3.83337H8.35088L8.94737 6.16671H25.239L22.9649 14.3334H9.28289L6.15132 2.08337C5.88569 1.04431 4.93503 0.333374 3.83991 0.333374H1.19298ZM21.4737 16.6667C19.5118 16.6667 17.8947 18.2481 17.8947 20.1667C17.8947 22.0853 19.5118 23.6667 21.4737 23.6667C23.4356 23.6667 25.0526 22.0853 25.0526 20.1667C25.0526 18.2481 23.4356 16.6667 21.4737 16.6667ZM10.7368 16.6667C8.77495 16.6667 7.15789 18.2481 7.15789 20.1667C7.15789 22.0853 8.77495 23.6667 10.7368 23.6667C12.6987 23.6667 14.3158 22.0853 14.3158 20.1667C14.3158 18.2481 12.6987 16.6667 10.7368 16.6667ZM10.7368 19C11.4079 19 11.9298 19.5105 11.9298 20.1667C11.9298 20.823 11.4079 21.3334 10.7368 21.3334C10.0658 21.3334 9.54386 20.823 9.54386 20.1667C9.54386 19.5105 10.0658 19 10.7368 19ZM21.4737 19C22.1447 19 22.6667 19.5105 22.6667 20.1667C22.6667 20.823 22.1447 21.3334 21.4737 21.3334C20.8026 21.3334 20.2807 20.823 20.2807 20.1667C20.2807 19.5105 20.8026 19 21.4737 19Z"/>
  </symbol>

  <symbol id="icons_mail" width="20" height="16" viewBox="0 0 20 16" xmlns="http://www.w3.org/2000/svg">
    <path d="M18 0H2C0.9 0 0.00999999 0.9 0.00999999 2L0 14C0 15.1 0.9 16 2 16H18C19.1 16 20 15.1 20 14V2C20 0.9 19.1 0 18 0ZM18 14H2V4L10 9L18 4V14ZM10 7L2 2H18L10 7Z"/>
  </symbol>

  <symbol id="icons-f-delivery" viewBox="0 0 40 29" xmlns="http://www.w3.org/2000/svg">
    <path d="M0 0.333344V3.83334H12.1739V7.33334H1.73913V10.8333H8.69565V14.3333H1.73913V23.0833H5.21739C5.21739 25.9831 7.55304 28.3333 10.4348 28.3333C13.3165 28.3333 15.6522 25.9831 15.6522 23.0833H24.3478H26.087C26.087 25.9831 28.4226 28.3333 31.3043 28.3333C34.1861 28.3333 36.5217 25.9831 36.5217 23.0833H40V14.3333L35.2615 4.80063C34.9676 4.20738 34.3684 3.83334 33.7092 3.83334H27.8261C27.8261 1.89959 26.2696 0.333344 24.3478 0.333344H0ZM27.8261 6.89584H32.9008L36.5965 14.3333H27.8261V6.89584ZM10.4348 20.8958C11.633 20.8958 12.6087 21.8776 12.6087 23.0833C12.6087 24.2891 11.633 25.2708 10.4348 25.2708C9.23652 25.2708 8.26087 24.2891 8.26087 23.0833C8.26087 21.8776 9.23652 20.8958 10.4348 20.8958ZM31.3043 20.8958C32.5026 20.8958 33.4783 21.8776 33.4783 23.0833C33.4783 24.2891 32.5026 25.2708 31.3043 25.2708C30.1061 25.2708 29.1304 24.2891 29.1304 23.0833C29.1304 21.8776 30.1061 20.8958 31.3043 20.8958Z"/>
  </symbol>

  <symbol id="icons-f-replace" width="38" height="38" viewBox="0 0 38 38" xmlns="http://www.w3.org/2000/svg">
    <path d="M22.7335 0.333344V13.4L28.5632 7.57032C31.8309 10.3066 33.9335 14.3905 33.9335 19V20.8667H37.6668V19C37.6668 13.3811 35.1499 8.35294 31.2064 4.92709L35.8002 0.333344H22.7335ZM11.2819 1.90105L8.05173 3.76772L9.91839 7.00157L13.1486 5.13491L11.2819 1.90105ZM3.76787 8.05157L1.9012 11.2818L5.13506 13.1484L7.00173 9.91824L3.76787 8.05157ZM0.333496 17.1333V19C0.333496 24.6189 2.8504 29.6471 6.79391 33.0729L2.20016 37.6667H15.2668V24.6L9.43714 30.4297C6.16938 27.6935 4.06683 23.6095 4.06683 19V17.1333H0.333496ZM32.8653 24.8479L30.9986 28.0818L34.2325 29.9485L36.0991 26.7146L32.8653 24.8479ZM28.0819 30.9984L24.8517 32.8651L26.7184 36.099L29.9486 34.2323L28.0819 30.9984Z"/>
  </symbol>

  <symbol id="icons-f-setup" width="38" height="38" viewBox="0 0 38 38" xmlns="http://www.w3.org/2000/svg">
    <path d="M25.9499 14.5644C27.649 14.7492 29.3481 15.4885 30.4808 16.5974L32.9351 19C35.0118 17.1518 36.3333 14.3795 36.3333 11.4225C36.3333 10.1287 36.1445 8.65018 35.5782 7.35645L35.2006 6.61717L31.4248 10.3135C30.6696 11.0528 29.7257 11.4225 28.7817 11.4225C27.8378 11.4225 26.8938 11.0528 26.1386 10.3135C24.6283 8.83499 24.6283 6.61717 26.1386 5.13862L29.9145 1.44225L29.1593 1.07262C27.8378 0.518162 26.5162 0.333344 25.0059 0.333344C20.6637 0.333344 16.8879 2.73598 15 6.24754L21.2301 12.3465C22.9292 12.3465 24.8171 13.0858 25.9499 14.5644Z"/>
    <path d="M12.3172 23.1111C11.9595 22.1389 11.7807 20.9722 11.9595 19.8056L9.99203 17.6667L5.16276 22.9167C2.30098 23.6945 0.333496 26.4167 0.333496 29.5278C0.333496 33.2222 3.19528 36.3334 6.59366 36.3334C9.45545 36.3334 11.9595 34.1945 12.675 31.2778L15.0002 28.75C14.4636 27.7778 14.2847 26.8056 14.1059 25.8334C13.2115 25.0556 12.675 24.2778 12.3172 23.1111ZM6.59366 32.4445C5.16276 32.4445 3.91073 31.0834 3.91073 29.5278C3.91073 27.9722 5.16276 26.6111 6.59366 26.6111C8.02455 26.6111 9.27659 27.7778 9.27659 29.5278C9.27659 31.0834 8.02455 32.4445 6.59366 32.4445Z"/>
    <path d="M36.5468 29.0511L27.4002 19.9136C26.6535 19.1677 25.5335 18.7948 24.6002 18.7948H23.2935L22.7335 17.6759C22.3602 16.7435 21.4268 16.3705 20.4935 16.557L19.5602 16.7435L8.36016 5.36827V2.94405L2.94683 0.333344L0.333496 2.94405L2.94683 8.16546H5.56016L16.7602 19.3542L16.2002 20.4731C16.0135 20.846 16.0135 21.4055 16.2002 21.9649C16.3868 22.5243 16.7602 22.7108 17.1335 22.8973L18.4402 23.4567V24.7621C18.4402 25.881 18.8135 26.8133 19.5602 27.5593L28.1468 36.1373L29.2668 37.0697C30.7602 38.0021 32.8135 37.8156 33.9335 36.6967L36.5468 34.086C37.2935 33.3401 37.6668 32.4077 37.6668 31.4753C37.6668 30.5429 37.2935 29.797 36.5468 29.0511Z"/>
  </symbol>

  <symbol id="icons-f-calculator" width="30" height="37" viewBox="0 0 30 37" xmlns="http://www.w3.org/2000/svg">
    <path d="M26.0002 0.333344H4.00016C1.97433 0.333344 0.333496 1.94434 0.333496 3.93334V32.7333C0.333496 34.7223 1.97433 36.3333 4.00016 36.3333H26.0002C28.026 36.3333 29.6668 34.7223 29.6668 32.7333V3.93334C29.6668 1.94434 28.026 0.333344 26.0002 0.333344ZM26.0002 11.1333H4.00016V3.93334H26.0002V11.1333ZM9.50016 18.3333H5.8335V14.7333H9.50016V18.3333ZM9.50016 25.5333H5.8335V21.9333H9.50016V25.5333ZM9.50016 32.7333H5.8335V29.1333H9.50016V32.7333ZM24.1668 32.7333H13.1668V29.1333H24.1668V32.7333ZM16.8335 25.5333H13.1668V21.9333H16.8335V25.5333ZM24.1668 25.5333H20.5002V21.9333H24.1668V25.5333ZM24.1668 18.3333H20.5002V14.7333H24.1668V18.3333ZM16.8335 18.3333H13.1668V14.7333H16.8335V18.3333Z"/>
  </symbol>

  <symbol id="icons-f-credit" width="39" height="38" viewBox="0 0 39 38" xmlns="http://www.w3.org/2000/svg">
    <path d="M3.86667 0.333344C1.74 0.333344 0 2.10176 0 4.26317V12.1228H4.40286L0.385156 28.8246C-0.968177 33.9333 1.54591 37.6667 6.95925 37.6667H31.7074C37.1208 37.6667 39.6348 34.1298 38.2815 28.8246L34.143 12.1228H38.6667V4.26317C38.6667 2.10176 36.9267 0.333344 34.8 0.333344H3.86667ZM9.85925 6.22808H13.2917L12.0833 14.0877H16.8676L17.2792 6.22808H21.3875L21.5952 10.1579H25.9792L25.375 6.22808H28.8074L34.6074 30.0028C34.9941 31.3782 34.9948 32.3606 34.4148 32.9501C34.0282 33.5396 33.0608 33.7369 31.7074 33.7369H6.95925C6.18591 33.7369 4.83182 33.5396 4.25182 32.9501C3.86516 32.3606 3.67258 31.1825 4.05925 29.807L9.85925 6.22808ZM21.7991 14.0877L22.1049 19.9825H27.4896L26.5833 14.0877H21.7991ZM10.875 21.9474L9.66667 29.807H16.0482L16.4598 21.9474H10.875ZM22.3126 23.9123L22.6185 29.807H29L28.0938 23.9123H22.3126Z"/>
  </symbol>

  <symbol id="icons-f-palette" width="38" height="38" viewBox="0 0 38 38" xmlns="http://www.w3.org/2000/svg">
    <path d="M20.3325 0.379603C8.97373 -0.408139 -0.408239 8.97196 0.379503 20.3308C1.06458 30.2037 9.67747 37.6667 19.5728 37.6667H20.8664C22.9291 37.6667 24.5998 35.996 24.5998 33.9333V28.3332C24.5998 26.2706 26.2705 24.5999 28.3332 24.5999H33.9332C35.9959 24.5999 37.6666 22.9292 37.6666 20.8665V19.5729C37.6666 9.67757 30.2036 1.06468 20.3325 0.379603ZM16.1997 4.06631C17.7453 4.06631 18.9997 5.32072 18.9997 6.86634C18.9997 8.41196 17.7453 9.66637 16.1997 9.66637C14.6541 9.66637 13.3996 8.41196 13.3996 6.86634C13.3996 5.32072 14.6541 4.06631 16.1997 4.06631ZM6.86624 24.5999C5.32063 24.5999 4.06621 23.3455 4.06621 21.7998C4.06621 20.2542 5.32063 18.9998 6.86624 18.9998C8.41186 18.9998 9.66627 20.2542 9.66627 21.7998C9.66627 23.3455 8.41186 24.5999 6.86624 24.5999ZM8.73293 15.2664C7.18731 15.2664 5.9329 14.012 5.9329 12.4664C5.9329 10.9208 7.18731 9.66637 8.73293 9.66637C10.2785 9.66637 11.533 10.9208 11.533 12.4664C11.533 14.012 10.2785 15.2664 8.73293 15.2664ZM17.133 33.9333C15.0703 33.9333 13.3996 32.2626 13.3996 30.1999C13.3996 28.1372 15.0703 26.4666 17.133 26.4666C19.1957 26.4666 20.8664 28.1372 20.8664 30.1999C20.8664 32.2626 19.1957 33.9333 17.133 33.9333ZM25.5331 11.5331C23.9875 11.5331 22.7331 10.2786 22.7331 8.73303C22.7331 7.18741 23.9875 5.933 25.5331 5.933C27.0787 5.933 28.3332 7.18741 28.3332 8.73303C28.3332 10.2786 27.0787 11.5331 25.5331 11.5331ZM31.1332 20.8665C29.5876 20.8665 28.3332 19.6121 28.3332 18.0665C28.3332 16.5208 29.5876 15.2664 31.1332 15.2664C32.6788 15.2664 33.9332 16.5208 33.9332 18.0665C33.9332 19.6121 32.6788 20.8665 31.1332 20.8665Z"/>
  </symbol>

  <symbol id="icons-sort" width="16" height="14" viewBox="0 0 16 14" xmlns="http://www.w3.org/2000/svg">
    <path d="M0 0V1.55556H3.2V0H0ZM12.8 0V10.8889H11.2L13.6 14L16 10.8889H14.4V0H12.8ZM0 3.11111V4.66667H4.8V3.11111H0ZM0 6.22222V7.77778H6.4V6.22222H0ZM0 9.33333V10.8889H8V9.33333H0ZM0 12.4444V14H9.6V12.4444H0Z"/>
  </symbol>

  <symbol id="icons-view-type-1" width="10" height="10" viewBox="0 0 10 10" xmlns="http://www.w3.org/2000/svg">
    <rect width="2" height="2"/>
    <rect x="4" width="2" height="2"/>
    <rect x="8" width="2" height="2"/>
    <rect y="4" width="2" height="2"/>
    <rect x="4" y="4" width="2" height="2"/>
    <rect x="8" y="4" width="2" height="2"/>
    <rect y="8" width="2" height="2"/>
    <rect x="4" y="8" width="2" height="2"/>
    <rect x="8" y="8" width="2" height="2"/>
  </symbol>

  <symbol id="icons-view-type-2" width="10" height="10" viewBox="0 0 10 10" xmlns="http://www.w3.org/2000/svg">
    <rect x="3" width="7" height="2"/>
    <rect width="2" height="2"/>
    <rect x="3" y="4" width="7" height="2"/>
    <rect y="4" width="2" height="2"/>
    <rect x="3" y="8" width="7" height="2"/>
    <rect y="8" width="2" height="2"/>
  </symbol>

  <symbol id="icons-view-type-3" width="10" height="10" viewBox="0 0 10 10" xmlns="http://www.w3.org/2000/svg">
    <rect width="1" height="1"/>
    <rect x="3" width="7" height="1"/>
    <rect y="3" width="1" height="1"/>
    <rect x="3" y="3" width="7" height="1"/>
    <rect y="9" width="1" height="1"/>
    <rect x="3" y="9" width="7" height="1"/>
    <rect y="6" width="1" height="1"/>
    <rect x="3" y="6" width="7" height="1"/>
  </symbol>

  <symbol id="icons-menu" width="18" height="14" viewBox="0 0 18 14" xmlns="http://www.w3.org/2000/svg">
    <path fill-rule="evenodd" clip-rule="evenodd" d="M18 0H0V2H18V0ZM18 4H0V6H18V4ZM0 8H18V10H0V8ZM18 12H0V14H18V12Z"/>
  </symbol>

  <symbol id="icons-menu2" width="18" height="14" viewBox="0 0 18 14" fill="none" xmlns="http://www.w3.org/2000/svg">
    <path fill-rule="evenodd" clip-rule="evenodd" d="M0 0H18V2H0V0ZM0 4H7V6H0V4ZM7 8H0V10H7V8ZM0 12H7V14H0V12ZM16.4283 11.4854L17.8392 12.8964C17.9488 13.0243 18.006 13.1888 17.9995 13.3571C17.993 13.5254 17.9232 13.6851 17.8041 13.8041C17.6851 13.9232 17.5254 13.993 17.3571 13.9995C17.1888 14.006 17.0243 13.9488 16.8964 13.8392L15.4854 12.4283C14.5379 13.1375 13.3568 13.4613 12.18 13.3347C11.0032 13.2081 9.91813 12.6404 9.14311 11.7458C8.36809 10.8513 7.96071 9.6964 8.00299 8.51359C8.04527 7.33077 8.53406 6.20788 9.37097 5.37097C10.2079 4.53406 11.3308 4.04527 12.5136 4.00299C13.6964 3.96071 14.8513 4.36809 15.7458 5.14311C16.6404 5.91813 17.2081 7.00325 17.3347 8.18003C17.4613 9.3568 17.1375 10.5379 16.4283 11.4854ZM9.9037 6.83284C9.53632 7.38266 9.34023 8.02908 9.34023 8.69034C9.34023 9.57707 9.69249 10.4275 10.3195 11.0545C10.9465 11.6815 11.7969 12.0338 12.6837 12.0338C13.3449 12.0338 13.9913 11.8377 14.5412 11.4703C15.091 11.1029 15.5195 10.5807 15.7726 9.96981C16.0256 9.35888 16.0918 8.68663 15.9628 8.03807C15.8338 7.38951 15.5154 6.79377 15.0478 6.32619C14.5802 5.8586 13.9845 5.54017 13.3359 5.41116C12.6874 5.28216 12.0151 5.34837 11.4042 5.60142C10.7933 5.85448 10.2711 6.28301 9.9037 6.83284Z" fill="#F7F7F7"/>
  </symbol>


  <symbol id="icons-menu-action" width="16" height="18" viewBox="0 0 16 18" xmlns="http://www.w3.org/2000/svg">
    <path d="M0 3.61924C0 2.54509 0.349135 1.67535 1.0474 1.01002C1.74567 0.336673 2.66065 0 3.79233 0C4.94005 0 5.86305 0.332665 6.56132 0.997996C7.25959 1.65531 7.60873 2.5491 7.60873 3.67936V4.54509C7.60873 5.62725 7.25959 6.49699 6.56132 7.15431C5.86305 7.81162 4.94808 8.14028 3.8164 8.14028C2.6767 8.14028 1.7537 7.81162 1.0474 7.15431C0.349135 6.48898 0 5.59519 0 4.47295L0 3.61924ZM2.31151 4.54509C2.31151 5.02605 2.44796 5.41483 2.72084 5.71142C3.00176 6 3.36694 6.14429 3.8164 6.14429C4.26586 6.14429 4.62302 5.99599 4.88789 5.6994C5.15275 5.40281 5.28518 5.00601 5.28518 4.50902V3.61924C5.28518 3.13828 5.15275 2.7495 4.88789 2.45291C4.62302 2.15631 4.25784 2.00802 3.79233 2.00802C3.35089 2.00802 2.99373 2.15631 2.72084 2.45291C2.44796 2.74148 2.31151 3.14629 2.31151 3.66733V4.54509ZM8.37923 13.4669C8.37923 12.3848 8.73238 11.515 9.43868 10.8577C10.145 10.1924 11.0599 9.85972 12.1836 9.85972C13.3233 9.85972 14.2423 10.1884 14.9406 10.8457C15.6469 11.495 16 12.3928 16 13.5391V14.4048C16 15.479 15.6549 16.3487 14.9646 17.014C14.2744 17.6713 13.3554 18 12.2077 18C11.0519 18 10.1249 17.6673 9.42664 17.002C8.72837 16.3367 8.37923 15.4549 8.37923 14.3567V13.4669ZM10.6907 14.4048C10.6907 14.8457 10.8352 15.2224 11.1242 15.5351C11.4131 15.8477 11.7743 16.004 12.2077 16.004C13.1869 16.004 13.6764 15.4629 13.6764 14.3808V13.4669C13.6764 12.986 13.54 12.6012 13.2671 12.3126C12.9942 12.016 12.6331 11.8677 12.1836 11.8677C11.7341 11.8677 11.373 12.016 11.1001 12.3126C10.8272 12.6012 10.6907 12.998 10.6907 13.503V14.4048ZM4.50263 16.4489L2.80512 15.5351L11.3649 1.8517L13.0625 2.76553L4.50263 16.4489Z"/>
  </symbol>

  <symbol id="icons-menu-home" width="18" height="18" viewBox="0 0 18 18" xmlns="http://www.w3.org/2000/svg">
    <path fill-rule="evenodd" clip-rule="evenodd" d="M17.1879 6.14248L10.4392 0.517458C10.0368 0.18337 9.52679 0 8.99978 0C8.47277 0 7.96283 0.18337 7.56043 0.517458L0.811668 6.14248C0.454096 6.44222 0.19799 6.84173 0.0774109 7.28788C-0.0431677 7.73403 -0.0224887 8.20563 0.13669 8.63996C0.313814 9.1364 0.664672 9.55499 1.12681 9.8212L1.12681 15.75C1.12283 16.3407 1.35721 16.909 1.77874 17.3306C2.20027 17.7522 2.77468 17.9929 3.37641 18H14.6243C15.2259 17.9926 15.8 17.7518 16.2212 17.3302C16.6425 16.9087 16.8767 16.3405 16.8727 15.75V9.8212C17.3349 9.55499 17.6858 9.1364 17.8629 8.63996C18.0224 8.20566 18.0433 7.73396 17.9227 7.28774C17.8021 6.84152 17.5458 6.44203 17.1879 6.14248ZM14.6243 7.87496V15.75H12.3747V10.125H5.62597V15.75H3.37641L3.37641 7.87496H2.25105L8.99978 2.24994L15.7485 7.87496H14.6243Z"/>
  </symbol>

  <symbol id="icons-menu-roll" width="20" height="19" viewBox="0 0 20 19" xmlns="http://www.w3.org/2000/svg">
    <path fill-rule="evenodd" clip-rule="evenodd" d="M10.5227 1C9.34986 1 8.30492 1.57638 7.62932 2.47479L2.31093 8.93166C1.49593 9.88635 1 11.1492 1 12.5343C1 15.4559 3.2071 17.8344 5.96082 17.9223L17.1604 17.994C17.6865 17.9974 18.1253 17.5924 18.1641 17.0677L18.8414 7.89525C18.927 6.73581 18.0095 5.74795 16.8469 5.74795L14.1191 5.74795C14.179 5.4702 14.2107 5.18112 14.2107 4.88421C14.2107 2.73886 12.5595 1 10.5227 1ZM9.59688 16.4895C10.1348 15.9646 10.5654 15.3196 10.8503 14.5949L10.8519 14.5908C10.8756 14.5305 10.8982 14.4697 10.9198 14.4083L13.6713 7.01165L17.4975 7.01165C17.5049 7.01165 17.506 7.0223 17.4988 7.02378C17.4961 7.02433 17.4941 7.02662 17.4939 7.02937L16.9129 15.5574C16.8772 16.0821 16.4411 16.4895 15.9152 16.4895H9.59688ZM5.54048 7.17772L8.77047 3.25045L8.77747 3.25508C9.20687 2.74539 9.82607 2.41788 10.5227 2.41788C11.8141 2.41788 12.8645 3.52467 12.8645 4.88421C12.8645 5.24331 12.7873 5.58199 12.6565 5.88991L12.6595 5.89223L10.8972 10.597C10.1583 8.57682 8.29757 7.1437 6.11879 7.1437C5.92327 7.1437 5.7303 7.15525 5.54048 7.17772ZM2.3464 12.5343C2.3464 11.4863 2.73384 10.5318 3.36575 9.82119L3.37527 9.81053C4.06363 9.04211 5.03903 8.56179 6.11879 8.56179C8.19879 8.56179 9.89139 10.3438 9.89139 12.5343C9.89139 14.7245 8.19879 16.5069 6.11879 16.5069C4.039 16.5069 2.3464 14.7245 2.3464 12.5343Z"/>
    <path fill-rule="evenodd" clip-rule="evenodd" d="M5.96082 17.9223C3.2071 17.8344 1 15.4559 1 12.5343C1 11.1492 1.49593 9.88635 2.31093 8.93166L7.62932 2.47479C8.30492 1.57638 9.34986 1 10.5227 1C12.5595 1 14.2107 2.73886 14.2107 4.88421C14.2107 5.09307 14.195 5.29805 14.1649 5.49795C14.1521 5.58222 14.1369 5.66558 14.1191 5.74795L16.8469 5.74795C18.0095 5.74795 18.927 6.73581 18.8414 7.89525L18.1641 17.0677C18.1253 17.5924 17.6865 17.9974 17.1604 17.994L5.96082 17.9223ZM14.4175 5.49795C14.4459 5.29759 14.4607 5.09264 14.4607 4.88421C14.4607 2.61315 12.7096 0.75 10.5227 0.75C9.26697 0.75 8.15192 1.36658 7.43288 2.32005L2.11935 8.77103C1.2671 9.77016 0.75 11.0897 0.75 12.5343C0.75 15.5795 3.05318 18.0796 5.95284 18.1722L17.3925 18.2455C17.9186 18.2489 18.3574 17.8439 18.3962 17.3192L19.1106 7.64525C19.1962 6.48581 18.2786 5.49795 17.116 5.49795L14.4175 5.49795ZM11.083 14.6864C10.8587 15.257 10.5477 15.7808 10.1671 16.2395H15.6817C16.2076 16.2395 16.6436 15.8321 16.6794 15.3074L17.1547 8.32962C17.1941 7.75192 16.7361 7.26165 16.157 7.26165H13.8451L11.1549 14.4935C11.1325 14.5569 11.1091 14.6197 11.0847 14.6821L11.083 14.6864ZM10.9198 14.4083L13.6713 7.01165L17.4975 7.01165C17.5049 7.01165 17.506 7.0223 17.4988 7.02378C17.4961 7.02433 17.4941 7.02662 17.4939 7.02937L16.9129 15.5574C16.8772 16.0821 16.4411 16.4895 15.9152 16.4895H9.59688C9.67944 16.4089 9.75947 16.3255 9.83684 16.2395C10.2635 15.7648 10.6092 15.2084 10.8503 14.5949L10.8519 14.5908C10.8756 14.5305 10.8982 14.4697 10.9198 14.4083ZM8.77747 3.25508L8.77047 3.25045L5.54048 7.17772C5.65512 7.16415 5.7709 7.15456 5.88771 7.1491C5.96431 7.14551 6.04135 7.1437 6.11879 7.1437C8.17219 7.1437 9.94304 8.41661 10.7586 10.2542C10.8084 10.3664 10.8546 10.4807 10.8972 10.597L12.6595 5.89223L12.6565 5.88991C12.7873 5.58199 12.8645 5.24331 12.8645 4.88421C12.8645 3.52467 11.8141 2.41788 10.5227 2.41788C9.82607 2.41788 9.20687 2.74539 8.77747 3.25508ZM12.3606 5.97729L12.3509 5.96978L12.4264 5.79217C12.5451 5.51254 12.6145 5.20699 12.6145 4.88421C12.6145 3.65035 11.6639 2.66788 10.5227 2.66788C9.90782 2.66788 9.35599 2.95641 8.96867 3.41616L8.82518 3.58647L8.8204 3.5833L6.09771 6.89374C6.10473 6.89372 6.11176 6.8937 6.11879 6.8937C8.1945 6.8937 9.98736 8.12903 10.881 9.92726L12.3606 5.97729ZM3.55257 9.98732C2.96068 10.6529 2.5964 11.5485 2.5964 12.5343C2.5964 14.5987 4.1891 16.2569 6.11879 16.2569C8.0487 16.2569 9.64139 14.5987 9.64139 12.5343C9.64139 10.4696 8.04873 8.81179 6.11879 8.81179C5.11551 8.81179 4.20615 9.2577 3.56148 9.97734L3.55257 9.98732ZM3.36575 9.82119C2.73384 10.5318 2.3464 11.4863 2.3464 12.5343C2.3464 14.7245 4.039 16.5069 6.11879 16.5069C8.19879 16.5069 9.89139 14.7245 9.89139 12.5343C9.89139 10.3438 8.19879 8.56179 6.11879 8.56179C5.03903 8.56179 4.06363 9.04211 3.37527 9.81053L3.36575 9.82119Z"/>
  </symbol>

  <symbol id="icons-menu-bricks" width="24" height="14" viewBox="0 0 24 14" xmlns="http://www.w3.org/2000/svg">
    <path d="M6.94634 9.96667H1.26942C0.96333 9.96667 0.715576 10.1961 0.715576 10.4789L0.715576 13.3386C0.715576 13.6214 0.96333 13.8508 1.26942 13.8508H6.94634C7.25244 13.8508 7.50019 13.6214 7.50019 13.3386V10.4789C7.50019 10.1958 7.25207 9.96667 6.94634 9.96667Z"/>
    <path d="M14.8387 9.96667H9.16176C8.85566 9.96667 8.60791 10.1961 8.60791 10.4789V13.3386C8.60791 13.6214 8.85566 13.8508 9.16176 13.8508H14.8387C15.1444 13.8508 15.3925 13.6214 15.3925 13.3386V10.4789C15.3925 10.1958 15.1444 9.96667 14.8387 9.96667Z"/>
    <path d="M22.731 9.96667H17.0541C16.7484 9.96667 16.5002 10.1961 16.5002 10.4789V13.3386C16.5002 13.6214 16.7484 13.8508 17.0541 13.8508H22.731C23.0367 13.8508 23.2849 13.6214 23.2849 13.3386V10.4789C23.2849 10.1958 23.0367 9.96667 22.731 9.96667Z"/>
    <path d="M5.21547 8.94225H10.8924C11.1985 8.94225 11.4462 8.71279 11.4462 8.43006V5.5703C11.4462 5.28723 11.1985 5.05811 10.8924 5.05811H5.21547C4.90937 5.05811 4.66162 5.28723 4.66162 5.5703V8.43006C4.66162 8.71279 4.90937 8.94225 5.21547 8.94225Z"/>
    <path d="M12.554 5.5703V8.43006C12.554 8.71279 12.8021 8.94225 13.1078 8.94225H18.7847C19.0904 8.94225 19.3386 8.71279 19.3386 8.43006V5.5703C19.3386 5.28723 19.0904 5.05811 18.7847 5.05811H13.1078C12.8021 5.05811 12.554 5.28723 12.554 5.5703Z"/>
    <path d="M9.16176 4.03368H14.8387C15.1444 4.03368 15.3925 3.80456 15.3925 3.52149V0.661731C15.3925 0.378658 15.1444 0.149536 14.8387 0.149536L9.16176 0.149536C8.85566 0.149536 8.60791 0.378658 8.60791 0.661731V3.52149C8.60791 3.80422 8.85566 4.03368 9.16176 4.03368Z"/>
  </symbol>

  <symbol id="icons-menu-metal" width="24" height="24" viewBox="0 0 24 24" xmlns="http://www.w3.org/2000/svg">
    <path d="M14.9712 16.9808L7.73513 9.74467C7.67275 9.68229 7.54799 9.55753 7.48561 9.49515C6.11324 8.12279 3.86756 8.12279 2.4952 9.49515C1.12284 10.8675 1.12284 13.1132 2.4952 14.4856L9.98081 21.9712C11.3532 23.3435 13.5989 23.3435 14.9712 21.9712C16.3436 20.5988 16.3436 18.3531 14.9712 16.9808ZM4.9904 14.4856L3.7428 13.238C3.05662 12.5518 3.05662 11.4289 3.7428 10.7428C4.42898 10.0566 5.55182 10.0566 6.238 10.7428C6.30038 10.8051 6.36276 10.8675 6.42514 10.9299L6.48752 10.9923L6.5499 11.0547L11.6027 16.1074C10.9789 16.2322 10.4175 16.5441 9.98081 16.9808C9.54415 17.4174 9.23225 17.9788 9.10749 18.6026L4.9904 14.4856ZM13.7236 20.7236C13.0374 21.4097 11.9146 21.4097 11.2284 20.7236C10.5422 20.0374 10.5422 18.9145 11.2284 18.2284C11.9146 17.5422 13.0374 17.5422 13.7236 18.2284C14.4098 18.9145 14.4098 20.0374 13.7236 20.7236Z"/>
    <path d="M22.1655 10.1774L14.6799 2.69179C14.368 2.37989 13.9313 2.19275 13.4323 2.19275L9.87661 2.25513C9.43995 2.19275 8.94091 2.44227 8.62901 2.75417C8.31711 3.06607 8.12997 3.50273 8.12997 4.00177L8.12997 7.49505C8.12997 7.99409 8.31711 8.43076 8.62901 8.74266L16.1146 16.2283C16.4265 16.5402 16.8632 16.7273 17.3622 16.7273L20.8555 16.7273C21.3545 16.7273 21.7912 16.5402 22.1031 16.2283C22.415 15.9164 22.6021 15.4797 22.6021 14.9807L22.6021 11.4874C22.6645 10.926 22.4774 10.4893 22.1655 10.1774ZM9.87661 7.49505L9.87661 4.00177L13.3699 4.00177L19.1089 9.74074L17.3622 9.74074C16.9256 9.67836 16.4265 9.92788 16.1146 10.2398C15.8027 10.5517 15.6156 10.9883 15.6156 11.4874L15.6156 13.234L11.1242 8.74266L10.5628 8.18123L9.87661 7.49505ZM20.9179 15.043L17.3622 14.9807L17.3622 11.4874L20.8555 11.4874L20.9179 15.043Z"/>
  </symbol>

  <symbol id="icons-menu-interior" width="20" height="22" viewBox="0 0 20 22" xmlns="http://www.w3.org/2000/svg">
    <path d="M19.5 0L4.5 0C2 0 0 1.8 0 4L0 17.6C0 19.8 2 21.6 4.5 21.6C6.2 21.6 7.6 20.8 8.4 19.6H19.6V0L19.5 0ZM17.5 11.8L12.5 6.8L17.5 1.8L17.4 1.7H17.5V11.8ZM9 10.4L11.2 8.2L14.7 11.7L9 17.5V10.4ZM14.8 1.8L9 7.6V4C9 3.2 8.7 2.4 8.3 1.8H9.2L14.8 1.8ZM4.5 2C5.9 2 7 2.9 7 4C7 5.1 5.9 6 4.5 6C3.1 6 2 5.1 2 4C2 2.9 3.1 2 4.5 2ZM4.5 8C5.4 8 6.3 7.7 7 7.3V12.8L6.7 13.1L2 8.4L2 7.3C2.7 7.7 3.6 8 4.5 8ZM2 17.8C2 17.7 2 17.7 2 17.6V11.2L5.3 14.5L2 17.8ZM4.5 19.6C4.1 19.6 3.6 19.5 3.3 19.3L7 15.6L7 17.6C7 18.7 5.9 19.6 4.5 19.6ZM11.5 17.8L16.1 13.2L17.5 14.6V17.8H11.5Z"/>
  </symbol>

  <symbol id="icons-menu-wood" width="20" height="17" viewBox="0 0 20 17" xmlns="http://www.w3.org/2000/svg">
    <path d="M3 3H4V4H3V3Z"/>
    <path d="M17 3H16V4H17V3Z"/>
    <path d="M4 8H3L3 9H4V8Z"/>
    <path d="M16 8L17 8V9H16V8Z"/>
    <path d="M3 13H4V14H3V13Z"/>
    <path d="M17 13H16V14H17V13Z"/>
    <path fill-rule="evenodd" clip-rule="evenodd" d="M19.7324 6C19.9026 5.70583 20 5.36429 20 5V2C20 0.895431 19.1046 0 18 0L2 0C0.895431 0 0 0.895431 0 2L0 5C0 5.36429 0.0973945 5.70583 0.267565 6C0.0973945 6.29417 0 6.63571 0 7L0 10C0 10.3643 0.0973945 10.7058 0.267565 11C0.0973945 11.2942 0 11.6357 0 12L0 15C0 16.1046 0.895431 17 2 17H18C19.1046 17 20 16.1046 20 15V12C20 11.6357 19.9026 11.2942 19.7324 11C19.9026 10.7058 20 10.3643 20 10V7C20 6.63571 19.9026 6.29418 19.7324 6ZM18 2L2 2V5L18 5V2ZM18 10V7L2 7L2 10H18ZM2 12V15H18V12H2Z"/>
  </symbol>

  <symbol id="icons-menu-paint" width="20" height="20" viewBox="0 0 20 20" xmlns="http://www.w3.org/2000/svg">
    <path fill-rule="evenodd" clip-rule="evenodd" d="M0 4.5H1.04148C1.27952 5.91886 2.5135 7 4 7H15C16.4865 7 17.7205 5.91886 17.9585 4.5H18V8L10 8C8.89543 8 8 8.89543 8 10V11C6.89543 11 6 11.8954 6 13L6 18C6 19.1046 6.89543 20 8 20H10C11.1046 20 12 19.1046 12 18V13C12 11.8954 11.1046 11 10 11V10H18C19.1046 10 20 9.10457 20 8V4.5C20 3.39543 19.1046 2.5 18 2.5H17.9585C17.7205 1.08114 16.4865 0 15 0L4 0C2.5135 0 1.27952 1.08114 1.04148 2.5H0L0 4.5ZM4 2L15 2C15.5523 2 16 2.44772 16 3V4C16 4.55228 15.5523 5 15 5H4C3.44772 5 3 4.55228 3 4V3C3 2.44772 3.44772 2 4 2ZM8 13H10V18H8V13Z"/>
  </symbol>

  <symbol id="icons-menu-heating" width="18" height="14" viewBox="0 0 18 14" xmlns="http://www.w3.org/2000/svg">
    <path d="M2.5 0C1.67157 0 1 0.671573 1 1.5V3H0L0 4H1L1 10H0L0 11H1L1 12.5C1 13.3284 1.67157 14 2.5 14C3.32843 14 4 13.3284 4 12.5V1.5C4 0.671573 3.32843 0 2.5 0Z"/>
    <path d="M6.5 0C5.67157 0 5 0.671573 5 1.5V12.5C5 13.3284 5.67157 14 6.5 14C7.32843 14 8 13.3284 8 12.5V1.5C8 0.671573 7.32843 0 6.5 0Z"/>
    <path d="M9 1.5C9 0.671573 9.67157 0 10.5 0C11.3284 0 12 0.671573 12 1.5V12.5C12 13.3284 11.3284 14 10.5 14C9.67157 14 9 13.3284 9 12.5V1.5Z"/>
    <path d="M14.5 0C13.6716 0 13 0.671573 13 1.5V12.5C13 13.3284 13.6716 14 14.5 14C15.3284 14 16 13.3284 16 12.5V4H17V5H18V2H17V3H16V1.5C16 0.671573 15.3284 0 14.5 0Z"/>
  </symbol>

  <symbol id="icons-menu-bath" width="19" height="18" viewBox="0 0 19 18" xmlns="http://www.w3.org/2000/svg">
    <path d="M16.7001 8L5.90015 8V3C5.90015 2.4 6.30015 2 6.90015 2C7.50015 2 7.90015 2.4 7.90015 3L9.90015 3C9.90015 1.3 8.60015 0 6.90015 0C5.20015 0 3.90015 1.3 3.90015 3V8H2.00015C0.500146 8 -0.399854 9.5 0.200146 10.8L0.700146 11.9C1.60015 13.8 3.30015 15.2 5.30015 15.7C5.60015 16.2 6.00015 16.7 6.40015 17C7.20015 17.6 8.30015 18 9.30015 18C10.4001 18 11.4001 17.6 12.2001 17C12.6001 16.7 13.0001 16.2 13.3001 15.8C15.3001 15.3 17.0001 13.9 17.9001 12L18.4001 10.9C19.2001 9.5 18.2001 8 16.7001 8ZM16.2001 11.1C15.4001 12.9 13.6001 14 11.7001 14H7.00015C5.10015 14 3.30015 12.9 2.50015 11.1L2.00015 10H16.7001L16.2001 11.1Z"/>
  </symbol>

  <symbol id="icons-menu-garden" width="20" height="20" viewBox="0 0 20 20" xmlns="http://www.w3.org/2000/svg">
    <path d="M14.1248 0.375C11.0875 0.375 8.62485 3.76025 8.62485 7.9375C8.62485 9.05894 9.16927 10.044 9.99985 10.6714V10.6875C9.99985 12.8655 9.99856 14.3047 7.99106 15.978C7.11518 16.7068 6.99775 18.0079 7.72788 18.8838C8.13625 19.3719 8.72378 19.625 9.31503 19.625C9.77978 19.625 10.2486 19.4687 10.6336 19.147C13.8099 16.5001 14.0947 13.7166 14.1195 11.375H14.1248V10.6714C14.9554 10.044 15.4998 9.05894 15.4998 7.9375C15.4998 7.019 15.1336 6.18753 14.5465 5.57153C14.5479 5.57016 14.5505 5.56754 14.5519 5.56616C13.4766 4.49091 14.1248 0.375 14.1248 0.375ZM19.6248 5.875C19.6248 5.875 17.9744 6.13475 16.4908 6.05225C16.7383 6.63112 16.8748 7.26788 16.8748 7.9375C16.8748 8.88762 16.5892 9.76769 16.1148 10.5129C18.2213 9.53669 19.6248 7.82613 19.6248 5.875ZM7.43247 5.92334C5.36722 6.07734 3.0625 6.71384 0.852876 9.36621C0.122751 10.2407 0.240184 11.5432 1.11606 12.272C1.50106 12.5937 1.96854 12.75 2.43466 12.75C3.02591 12.75 3.61345 12.4983 4.02182 12.0088C5.2607 10.521 6.3743 10.1353 7.75205 10.0349C7.4413 9.39829 7.24985 8.69375 7.24985 7.9375C7.24985 7.2445 7.31697 6.57234 7.43247 5.92334ZM12.0623 6.5625C12.8213 6.5625 13.4373 7.1785 13.4373 7.9375C13.4373 8.6965 12.8213 9.3125 12.0623 9.3125C11.3033 9.3125 10.6873 8.6965 10.6873 7.9375C10.6873 7.1785 11.3033 6.5625 12.0623 6.5625ZM5.88022 7.55884C5.87609 7.68534 5.87485 7.81238 5.87485 7.9375C5.87485 8.28263 5.90566 8.62506 5.96616 8.96606C5.00366 9.27544 4.0004 9.88768 2.9664 11.1279C2.83578 11.2847 2.63954 11.375 2.43466 11.375C2.32191 11.375 2.15504 11.3486 1.99692 11.2166C1.80717 11.0584 1.76216 10.8551 1.75253 10.7493C1.74291 10.6434 1.75017 10.4368 1.9083 10.2471C3.26817 8.61495 4.62485 7.89159 5.88022 7.55884ZM12.0623 12.75C12.0623 12.75 12.662 12.8476 12.5726 13.4375C12.3389 14.9706 11.6049 16.5488 9.75278 18.0916C9.6249 18.1988 9.46772 18.25 9.31235 18.25C9.11572 18.25 8.91942 18.1666 8.7833 18.0029C8.53992 17.7114 8.58179 17.2768 8.87192 17.0334C10.3225 15.8248 10.9231 14.6517 11.1788 13.4348C11.2269 13.2079 11.423 12.6854 12.0623 12.75Z"/>
  </symbol>

  <symbol id="icons-menu-tools" width="18" height="17" viewBox="0 0 18 17" xmlns="http://www.w3.org/2000/svg">
    <path fill-rule="evenodd" clip-rule="evenodd" d="M8 2L14 2C15.1046 2 16 2.89543 16 4V5C16 6.10457 15.1046 7 14 7H12H8C6.89543 7 6 6.10457 6 5V4.5V4C6 2.89543 6.89543 2 8 2ZM4.12602 6C4.57006 7.72523 6.13616 9 8 9H10V9.17157C10 9.70201 10.2107 10.2107 10.5858 10.5858C11.3668 11.3668 11.3668 12.6332 10.5858 13.4142C10.2107 13.7893 10 14.298 10 14.8284V15C10 16.1046 10.8954 17 12 17H14C15.1046 17 16 16.1046 16 15V9C16 8.82753 15.9782 8.66015 15.9371 8.50049C17.1673 7.81827 18 6.50638 18 5V4C18 1.79086 16.2091 0 14 0L8 0C6.13616 0 4.57006 1.27477 4.12602 3H2.5C1.84689 3 1.29127 3.4174 1.08535 4H0.5C0.223858 4 0 4.22386 0 4.5C0 4.77614 0.223858 5 0.5 5H1.08535C1.29127 5.5826 1.84689 6 2.5 6H4.12602ZM10 3.5C10 3.22386 10.2239 3 10.5 3H14.5C14.7761 3 15 3.22386 15 3.5C15 3.77614 14.7761 4 14.5 4H10.5C10.2239 4 10 3.77614 10 3.5Z"/>
  </symbol>

  <symbol id="icons-menu-electric" width="18" height="18" viewBox="0 0 18 18" xmlns="http://www.w3.org/2000/svg">
    <path fill-rule="evenodd" clip-rule="evenodd" d="M2 16L2 2L16 2V16H2ZM0 1C0 0.447716 0.447715 0 1 0L17 0C17.5523 0 18 0.447715 18 1V17C18 17.5523 17.5523 18 17 18H1C0.447716 18 0 17.5523 0 17L0 1ZM9 13C6.79086 13 5 11.2091 5 9C5 6.79086 6.79086 5 9 5C11.2091 5 13 6.79086 13 9C13 11.2091 11.2091 13 9 13ZM3 9C3 5.68629 5.68629 3 9 3C12.3137 3 15 5.68629 15 9C15 12.3137 12.3137 15 9 15C5.68629 15 3 12.3137 3 9ZM8 9C8 9.55229 7.55228 10 7 10C6.44772 10 6 9.55229 6 9C6 8.44771 6.44772 8 7 8C7.55228 8 8 8.44771 8 9ZM11 10C11.5523 10 12 9.55229 12 9C12 8.44771 11.5523 8 11 8C10.4477 8 10 8.44771 10 9C10 9.55229 10.4477 10 11 10Z"/>
  </symbol>

  <symbol id="icons-arrow" width="12" height="15" viewBox="0 0 12 15" xmlns="http://www.w3.org/2000/svg">
    <path d="M5.15138 15V3.32036L1.27293 7.11414L0 5.869L6 -9.53674e-07L12 5.869L10.7271 7.11414L6.84862 3.32036V15H5.15138Z"/>
  </symbol>

  <symbol id="icons-menu" width="18" height="14" viewBox="0 0 18 14" fill="none" xmlns="http://www.w3.org/2000/svg">
    <path fill-rule="evenodd" clip-rule="evenodd" d="M18 0H0V2H18V0ZM18 4H0V6H18V4ZM0 8H18V10H0V8ZM18 12H0V14H18V12Z" fill="#F7F7F7"/>
  </symbol>

  <symbol id="icons-play" width="168" height="153" viewBox="0 0 168 153" xmlns="http://www.w3.org/2000/svg">
    <path d="M65.7537 32.4147V105.662L121.036 69.0383L65.7537 32.4147Z"/>
  </symbol>

  <symbol id="icons-chat" width="16" height="16" viewBox="0 0 16 16" xmlns="http://www.w3.org/2000/svg">
    <path d="M4.00016 1.33337V2.66671H13.3335V9.33337H14.6668V2.66671C14.6668 1.93004 14.0702 1.33337 13.3335 1.33337H4.00016ZM2.66683 4.00004C1.9335 4.00004 1.34001 4.60004 1.34001 5.33337L1.3335 15.3334L4.00016 12.6667H10.6668C11.4002 12.6667 12.0002 12.0667 12.0002 11.3334V5.33337C12.0002 4.60004 11.4002 4.00004 10.6668 4.00004H2.66683Z"/>
  </symbol>

  <symbol id="icons-print" width="18" height="18" viewBox="0 0 18 18" xmlns="http://www.w3.org/2000/svg">
    <path d="M14.8938 3.68953H14.4312V2.6599C14.4312 1.19378 13.2374 0 11.7713 0H6.18666C4.72055 0 3.52676 1.19378 3.52676 2.6599V3.68953H3.10521C1.63909 3.68953 0.445312 4.88332 0.445312 6.34943V10.6396C0.445312 12.1057 1.63909 13.2995 3.10521 13.2995H3.52303V16.6719C3.52303 17.4031 4.11992 18 4.85112 18H13.0994C13.8306 18 14.4275 17.4031 14.4275 16.6719V13.2995H14.8938C16.3599 13.2995 17.5537 12.1057 17.5537 10.6396V6.34943C17.5537 4.88332 16.3599 3.68953 14.8938 3.68953ZM4.53029 2.6599C4.53029 1.74964 5.27267 1.00725 6.18293 1.00725H11.7639C12.6741 1.00725 13.4165 1.74964 13.4165 2.6599V3.68953H4.53029V2.6599ZM13.4202 16.6794C13.4202 16.8547 13.2747 17.0002 13.0994 17.0002H4.85112C4.67578 17.0002 4.53029 16.8547 4.53029 16.6794V11.1171H13.4202V16.6794ZM16.5465 10.6433C16.5465 11.5536 15.8041 12.296 14.8938 12.296H14.4312V11.1171H15.0953C15.3751 11.1171 15.5989 10.8933 15.5989 10.6135C15.5989 10.3337 15.3751 10.1098 15.0953 10.1098H2.78438C2.50459 10.1098 2.28075 10.3337 2.28075 10.6135C2.28075 10.8933 2.50459 11.1171 2.78438 11.1171H3.52676V12.296H3.10521C2.19495 12.296 1.45257 11.5536 1.45257 10.6433V6.35316C1.45257 5.4429 2.19495 4.70052 3.10521 4.70052H14.8938C15.8041 4.70052 16.5465 5.4429 16.5465 6.35316V10.6433Z" fill-opacity="0.38"/>
    <path d="M5.74972 13.5942H12.1626C12.4424 13.5942 12.6662 13.3703 12.6662 13.0905C12.6662 12.8107 12.4424 12.5869 12.1626 12.5869H5.74972C5.46993 12.5869 5.24609 12.8107 5.24609 13.0905C5.24609 13.3703 5.47366 13.5942 5.74972 13.5942Z" fill-opacity="0.38"/>
    <path d="M12.2044 14.6462H5.78781C5.50801 14.6462 5.28418 14.8701 5.28418 15.1499C5.28418 15.4297 5.50801 15.6535 5.78781 15.6535H12.2007C12.4805 15.6535 12.7043 15.4297 12.7043 15.1499C12.7043 14.8701 12.4805 14.6462 12.2044 14.6462Z" fill-opacity="0.38"/>
    <path d="M14.8823 5.66675H13.8601C13.5803 5.66675 13.3564 5.89058 13.3564 6.17037C13.3564 6.45017 13.5803 6.674 13.8601 6.674H14.8823C15.162 6.674 15.3859 6.45017 15.3859 6.17037C15.3859 5.89058 15.162 5.66675 14.8823 5.66675Z" fill-opacity="0.38"/>
  </symbol>

  <symbol id="icons-close" width="12" height="12" viewBox="0 0 12 12" xmlns="http://www.w3.org/2000/svg">
    <path d="M11.5307 1.52997L10.4707 0.469971L6.0007 4.93997L1.5307 0.469971L0.470703 1.52997L4.9407 5.99997L0.470703 10.47L1.5307 11.53L6.0007 7.05997L10.4707 11.53L11.5307 10.47L7.0607 5.99997L11.5307 1.52997Z" fill-opacity="0.6"/>
  </symbol>

  <symbol id="icons-question" width="16" height="16" viewBox="0 0 16 16" xmlns="http://www.w3.org/2000/svg">
    <path d="M5.22909 7.07015C5.09543 6.94701 5.01625 6.78352 5.00663 6.6108C4.97981 6.26463 5.03459 5.91724 5.16733 5.59184C5.30006 5.26643 5.50768 4.9705 5.77634 4.7238C6.04499 4.4771 6.36849 4.28531 6.72523 4.16124C7.08197 4.03717 7.46374 3.98367 7.84506 4.00432C11 4.00432 11 5.85019 11 6.45312C10.925 6.88992 10.7544 7.30866 10.4984 7.68463C10.2424 8.06059 9.90605 8.38618 9.50931 8.64219C8.70271 9.08742 8.41683 9.43062 8.41683 9.56976C8.41513 9.74666 8.33831 9.91613 8.20241 10.0428C8.06506 10.1623 7.88208 10.2288 7.6919 10.2283C7.50235 10.2283 7.32056 10.1599 7.18653 10.0382C7.05249 9.91639 6.97719 9.75124 6.97719 9.57904C6.97719 8.59581 8.05947 7.81665 8.70271 7.43634C9.03929 7.18347 9.31108 6.86691 9.4991 6.50877C9.4991 5.63685 9.41742 5.32148 7.87569 5.32148C7.69145 5.30555 7.50558 5.32453 7.32983 5.37722C7.15408 5.42991 6.99229 5.51516 6.85467 5.62757C6.73832 5.75546 6.65277 5.90407 6.60353 6.06384C6.55429 6.2236 6.54245 6.39097 6.56878 6.55515C6.57042 6.65375 6.54957 6.7516 6.50753 6.84252C6.4655 6.93344 6.40319 7.01547 6.32454 7.08344C6.24589 7.15141 6.15259 7.20384 6.05054 7.23744C5.94848 7.27104 5.83987 7.28507 5.73155 7.27866C5.54158 7.2675 5.36275 7.19329 5.22909 7.07015Z"/>
    <path d="M7.15432 10.8441C7.2941 10.7171 7.48368 10.6457 7.68135 10.6457C7.87903 10.6457 8.06861 10.7171 8.20839 10.8441C8.34817 10.9711 8.4267 11.1433 8.4267 11.3229C8.4267 11.5025 8.34817 11.6747 8.20839 11.8017C8.06861 11.9287 7.87903 12 7.68135 12C7.48368 12 7.2941 11.9287 7.15432 11.8017C7.01454 11.6747 6.93601 11.5025 6.93601 11.3229C6.93601 11.1433 7.01454 10.9711 7.15432 10.8441Z"/>
    <path fill-rule="evenodd" clip-rule="evenodd" d="M16 8C16 12.4183 12.4183 16 8 16C3.58172 16 0 12.4183 0 8C0 3.58172 3.58172 0 8 0C12.4183 0 16 3.58172 16 8ZM14.5 8C14.5 11.5899 11.5899 14.5 8 14.5C4.41015 14.5 1.5 11.5899 1.5 8C1.5 4.41015 4.41015 1.5 8 1.5C11.5899 1.5 14.5 4.41015 14.5 8Z"/>
  </symbol>

</svg>
