<svg width="1920" height="606" viewBox="0 0 1920 606" fill="none" xmlns="http://www.w3.org/2000/svg">
<rect width="1920" height="606" fill="#FFED00"/>
<g clip-path="url(#clip0)">
<path d="M1248.13 446.769C1248.09 446.798 1248.06 446.829 1248.02 446.862L1229.37 465.823C1229.01 466.188 1229.02 466.776 1229.38 467.138L1234.99 472.728C1235.17 472.902 1235.4 473 1235.65 473C1235.9 472.999 1236.14 472.898 1236.31 472.72L1254.97 453.763C1254.99 453.734 1255.02 453.702 1255.05 453.67L1257.8 449.993L1267.48 440.514L1274.28 445.443C1274.44 445.558 1274.64 445.62 1274.84 445.62C1274.87 445.62 1274.91 445.619 1274.94 445.615C1280.3 445.037 1284.52 440.803 1285.08 435.449C1285.11 435.217 1285.05 434.984 1284.91 434.795L1278.53 426.055C1277.74 424.969 1276.77 424.023 1275.67 423.255L1267.86 417.81L1267.83 417.864C1265.94 416.156 1262.26 417.047 1259.36 419.951C1258.09 421.18 1257.15 422.714 1256.63 424.407C1256.14 425.767 1256.39 427.286 1257.29 428.415L1257.24 428.452L1261.51 434.531L1251.81 444.004L1248.13 446.769ZM1277.02 427.156L1283.19 435.596C1282.58 439.8 1279.28 443.104 1275.08 443.712L1266.62 437.578C1265.7 436.911 1264.89 436.096 1264.24 435.166L1260.24 429.471C1262.44 429.207 1264.47 428.165 1265.97 426.534C1267.25 425.305 1268.19 423.772 1268.7 422.079C1268.82 421.667 1268.89 421.244 1268.91 420.817L1274.61 424.786C1275.54 425.437 1276.36 426.238 1277.02 427.157V427.156ZM1258.43 424.897C1258.87 423.519 1259.64 422.272 1260.68 421.27C1261.89 419.911 1263.56 419.051 1265.36 418.857C1265.82 418.826 1266.28 418.979 1266.62 419.28C1267.11 419.95 1267.22 420.826 1266.9 421.593C1266.47 422.972 1265.69 424.22 1264.65 425.221C1262.31 427.555 1259.64 428.142 1258.71 427.208C1258.22 426.537 1258.12 425.662 1258.43 424.897ZM1253.07 445.381L1262.59 436.077L1262.62 436.116L1262.71 436.24C1263.48 437.34 1264.43 438.303 1265.52 439.09L1265.95 439.402L1256.44 448.706C1256.41 448.74 1256.38 448.776 1256.35 448.814L1253.59 452.498L1235.64 470.742L1231.36 466.47L1249.31 448.222L1252.98 445.462C1253.01 445.437 1253.04 445.41 1253.07 445.381Z" fill="#333333"/>
</g>
<g clip-path="url(#clip1)">
<path d="M266.253 81.4168H273.586C273.914 81.4177 274.218 81.2427 274.381 80.9585L278.048 74.5421C278.209 74.2606 278.209 73.9146 278.048 73.6326L274.381 67.2162C274.219 66.9293 273.916 66.7516 273.586 66.7507H266.253C265.925 66.7503 265.622 66.9249 265.457 67.2091L261.791 73.6255C261.63 73.9074 261.63 74.253 261.791 74.5349L265.457 80.9513C265.619 81.2382 265.923 81.4159 266.253 81.4168ZM266.784 68.584H273.054L276.197 74.0838L273.054 79.5835H266.784L263.641 74.0838L266.784 68.584Z" fill="#333333"/>
<path d="M269.936 86C270.24 86 270.547 85.9879 270.852 85.9651C276.343 85.2977 280.756 81.1259 281.73 75.6817C281.935 74.1724 281.847 72.6377 281.473 71.1616L295.58 57.0528C296.475 56.1563 297.617 55.5454 298.859 55.2974L301.269 54.8163C301.291 54.8122 301.313 54.8073 301.335 54.8006C307.89 54.4502 313.019 49.0242 313.002 42.4601C312.989 37.6769 310.319 33.297 306.073 31.094C305.788 30.9544 305.452 30.9714 305.183 31.1392C304.914 31.3071 304.751 31.602 304.752 31.9189V41.0852C304.752 41.5914 304.342 42.0018 303.836 42.0018H298.336C297.83 42.0018 297.419 41.5914 297.419 41.0852V31.9189C297.419 31.6168 297.27 31.3339 297.021 31.163C296.772 30.992 296.454 30.9548 296.172 31.0636C291.664 32.7733 288.575 36.9666 288.279 41.7798C288.262 41.8528 288.253 41.9271 288.253 42.0018V44.4648C288.257 46.1674 287.58 47.8006 286.374 49.0014L272.842 62.5342C271.366 62.16 269.831 62.0723 268.323 62.276C262.879 63.2499 258.708 67.6607 258.04 73.1497C257.779 76.4654 258.916 79.7384 261.175 82.1791C263.434 84.6192 266.61 86.0045 269.936 86ZM259.868 73.2889C260.479 68.6682 263.985 64.9609 268.565 64.0927C269.014 64.0322 269.467 64.0014 269.92 64.0009C270.911 64.0009 271.896 64.1477 272.844 64.4364C273.169 64.5353 273.521 64.4471 273.761 64.2072L287.67 50.2976C289.222 48.7539 290.092 46.6539 290.086 44.4648V42.1943C290.095 42.1482 290.101 42.1012 290.102 42.0542C290.23 38.376 292.324 35.0497 295.586 33.3453V41.0852C295.586 42.6038 296.817 43.8351 298.336 43.8351H303.836C305.354 43.8351 306.586 42.6038 306.586 41.0852V33.5275C309.449 35.6047 311.152 38.9225 311.169 42.4601C311.183 48.1295 306.694 52.7865 301.028 52.9803C300.911 52.9848 300.797 53.0126 300.692 53.0618L298.5 53.5C296.902 53.8186 295.435 54.6041 294.283 55.7566L279.801 70.2441C279.561 70.4835 279.473 70.8362 279.571 71.1607C279.993 72.5464 280.111 74.0068 279.916 75.4422C279.048 80.0222 275.339 83.5285 270.718 84.1394C267.775 84.3731 264.877 83.3056 262.789 81.2177C260.701 79.1302 259.634 76.2322 259.868 73.2889Z" fill="#333333"/>
<path d="M276.604 66.1027L294.02 48.6867L295.316 49.9829L277.9 67.3988L276.604 66.1027Z" fill="#333333"/>
</g>
<g clip-path="url(#clip2)">
<path d="M295.3 417.299C297.288 417.299 298.9 415.687 298.9 413.699C298.9 411.711 297.288 410.099 295.3 410.099C293.312 410.099 291.7 411.711 291.7 413.699C291.7 415.687 293.312 417.299 295.3 417.299ZM295.3 411.899C296.294 411.899 297.1 412.705 297.1 413.699C297.1 414.693 296.294 415.499 295.3 415.499C294.306 415.499 293.5 414.693 293.5 413.699C293.5 412.705 294.306 411.899 295.3 411.899Z" fill="#333333"/>
<path d="M265.22 439.799C266.919 439.796 268.325 438.476 268.434 436.781C268.885 429.951 273.774 424.23 280.45 422.721L281.53 422.481C282.586 422.244 283.618 421.915 284.616 421.497C285.694 421.047 286.727 420.495 287.7 419.849C287.723 419.834 287.735 419.808 287.756 419.791C287.784 419.774 287.811 419.756 287.837 419.737L289.553 418.019C289.957 418.562 290.435 419.044 290.974 419.453L289.264 421.163C289.244 421.189 289.226 421.217 289.208 421.246C289.192 421.267 289.167 421.278 289.152 421.301C288.516 422.256 287.971 423.27 287.525 424.327C287.096 425.343 286.759 426.394 286.518 427.47L286.279 428.55C284.77 435.227 279.048 440.115 272.219 440.565C270.483 440.674 269.147 442.141 269.201 443.88C269.256 445.618 270.681 446.999 272.42 446.999C281.96 446.979 290.169 440.25 292.06 430.9C292.219 430.109 292.454 429.335 292.761 428.59C293.077 427.814 293.468 427.071 293.931 426.372L294.201 425.972L297.737 422.436C297.928 422.244 298.023 421.976 297.995 421.707L297.862 420.423C299.627 419.748 301.056 418.405 301.838 416.685L302.797 416.35C302.975 416.288 303.13 416.171 303.237 416.016L315.837 398.016C316.088 397.659 316.045 397.173 315.737 396.864L312.137 393.264C311.836 392.964 311.366 392.914 311.01 393.146L293.01 404.846C292.81 404.976 292.669 405.18 292.619 405.414L292.24 407.184C290.547 407.974 289.232 409.396 288.577 411.144L287.292 411.006C287.021 410.978 286.752 411.072 286.559 411.264L283.022 414.801L282.623 415.071C281.248 415.976 279.712 416.61 278.099 416.939C268.748 418.83 262.019 427.039 262 436.579C262.002 438.356 263.443 439.797 265.22 439.799ZM291.65 426.701L289.427 424.478C289.623 424.055 289.838 423.641 290.068 423.24L292.342 425.514C292.093 425.898 291.863 426.295 291.65 426.701ZM290.293 430.547C288.571 439.056 281.101 445.179 272.42 445.199C271.652 445.2 271.022 444.591 270.998 443.824C270.974 443.056 271.564 442.409 272.33 442.361C279.96 441.858 286.35 436.396 288.035 428.938L288.273 427.858C288.391 427.332 288.535 426.811 288.704 426.299L290.874 428.469C290.629 429.146 290.435 429.841 290.293 430.547ZM302.5 413.936C302.5 413.857 302.504 413.778 302.504 413.699C302.509 412.1 301.977 410.545 300.993 409.284L313.3 396.972L313.93 397.602L302.5 413.936ZM293.354 408.667C293.637 408.558 293.846 408.312 293.909 408.015L294.303 406.15L311.379 395.051L312.027 395.7L299.118 408.608C298.767 408.959 298.767 409.529 299.118 409.881C300.48 411.251 301.007 413.245 300.501 415.109C299.994 416.973 298.531 418.426 296.663 418.919C296.232 419.031 295.948 419.441 295.994 419.884L296.16 421.467L293.5 424.127L291.172 421.799L293.044 419.928C293.246 419.725 293.34 419.438 293.296 419.155C293.252 418.871 293.076 418.626 292.821 418.494C291.835 417.98 291.031 417.175 290.52 416.188C290.52 416.182 290.52 416.175 290.515 416.17C290.413 415.977 290.323 415.779 290.244 415.577L290.239 415.562C290.171 415.38 290.113 415.194 290.065 415.005C290.046 414.927 290.031 414.848 290.015 414.769C289.988 414.639 289.96 414.51 289.943 414.38C289.878 413.932 289.878 413.477 289.943 413.03C289.976 412.799 290.023 412.572 290.082 412.347C290.082 412.338 290.082 412.329 290.082 412.319C290.518 410.645 291.737 409.284 293.354 408.667ZM287.531 412.841L288.149 412.907C288.117 413.17 288.1 413.434 288.1 413.699C288.101 413.955 288.116 414.211 288.145 414.465C288.156 414.58 288.177 414.692 288.195 414.805C288.213 414.919 288.234 415.052 288.261 415.175C288.295 415.342 288.338 415.505 288.384 415.669C288.397 415.712 288.41 415.755 288.423 415.797C288.484 416 288.552 416.199 288.631 416.395L287.2 417.827L284.872 415.499L287.531 412.841ZM283.481 416.657L285.76 418.931C285.344 419.17 284.912 419.391 284.469 419.594L283.749 418.874L282.25 417.373C282.673 417.155 283.085 416.916 283.485 416.657H283.481ZM278.452 418.706C279.138 418.568 279.812 418.38 280.47 418.144L282.64 420.313C282.14 420.475 281.638 420.613 281.138 420.725L280.057 420.964C272.601 422.65 267.141 429.04 266.638 436.668C266.59 437.434 265.943 438.024 265.175 438C264.408 437.976 263.799 437.347 263.8 436.579C263.819 427.898 269.943 420.428 278.452 418.706Z" fill="#333333"/>
</g>
<g clip-path="url(#clip3)">
<path d="M1698.78 332.795L1710.7 344.721C1711.82 345.841 1711.82 347.652 1710.7 348.771C1709.59 349.888 1707.77 349.888 1706.65 348.771L1694.73 336.845C1693.61 335.726 1693.61 333.913 1694.73 332.795C1695.86 331.715 1697.64 331.715 1698.78 332.795ZM1696.03 335.547L1707.95 347.474C1708.35 347.876 1709.01 347.876 1709.41 347.474C1709.81 347.072 1709.81 346.421 1709.41 346.019L1697.48 334.092C1697.07 333.703 1696.43 333.703 1696.03 334.092C1695.83 334.285 1695.72 334.547 1695.72 334.82C1695.72 335.093 1695.83 335.355 1696.03 335.547H1696.03Z" fill="#333333"/>
<path d="M1667.22 311.947C1667.03 311.887 1666.87 311.769 1666.76 311.611L1662.17 305.189C1661.91 304.824 1661.95 304.324 1662.27 304.007L1665.94 300.337C1666.26 300.021 1666.76 299.979 1667.12 300.24L1673.54 304.827C1673.7 304.94 1673.82 305.101 1673.88 305.286L1674.73 307.833L1689.07 322.166L1691.63 319.603C1691.99 319.245 1692.57 319.245 1692.93 319.603L1695.68 322.356C1695.85 322.528 1695.95 322.761 1695.95 323.004C1695.94 324.801 1697.1 326.398 1698.8 326.964L1699.68 327.259C1700.57 327.555 1701.37 328.051 1702.03 328.71L1714.69 341.371C1717.79 344.525 1717.77 349.586 1714.64 352.71C1711.51 355.835 1706.45 355.855 1703.3 352.755L1690.64 340.095C1689.98 339.434 1689.48 338.63 1689.19 337.745L1688.89 336.863C1688.33 335.16 1686.73 334.012 1684.94 334.013C1684.69 334.013 1684.46 333.917 1684.29 333.745L1681.54 330.992C1681.18 330.634 1681.18 330.053 1681.54 329.695L1684.1 327.133L1669.76 312.797L1667.22 311.947ZM1685.33 332.191C1687.77 332.349 1689.87 333.969 1690.64 336.288L1690.93 337.169C1691.14 337.784 1691.48 338.343 1691.94 338.802L1704.6 351.463C1707.03 353.891 1710.97 353.891 1713.4 351.463C1715.83 349.034 1715.83 345.097 1713.4 342.668L1700.74 330.008C1700.28 329.55 1699.72 329.204 1699.1 328.998L1698.22 328.705C1695.9 327.935 1694.28 325.835 1694.13 323.397L1692.28 321.549L1683.48 330.344L1685.33 332.191ZM1670.91 311.346L1685.4 325.835L1687.77 323.463L1673.28 308.974C1673.18 308.873 1673.1 308.751 1673.06 308.615L1672.23 306.147L1666.69 302.184L1664.12 304.753L1668.08 310.3L1670.55 311.125C1670.68 311.17 1670.81 311.246 1670.91 311.346Z" fill="#333333"/>
</g>
<g clip-path="url(#clip4)">
<path d="M96.2031 531.111C97.6484 531.111 98.9512 530.241 99.5042 528.905C100.057 527.57 99.7513 526.033 98.7295 525.011L86.7367 513.018L88.7166 511.038C89.0811 510.674 89.0811 510.083 88.7166 509.719L84.7569 505.759C84.3924 505.394 83.8014 505.394 83.4369 505.759L81.457 507.739L70.8977 497.179C70.5332 496.815 69.9422 496.815 69.5777 497.179L68.9178 497.839L66.2779 495.199C66.1026 495.025 65.8654 494.926 65.618 494.926H63.1985L60.7559 493.705C60.3963 493.525 59.9622 493.596 59.6783 493.879L57.6984 491.9L56.3785 493.219L58.3584 495.199C58.0742 495.484 58.0036 495.918 58.1834 496.277L59.405 498.72L59.405 501.139C59.405 501.386 59.5033 501.624 59.6783 501.799L62.3182 504.439L61.6582 505.099C61.2937 505.463 61.2937 506.054 61.6582 506.419L62.3182 507.079L57.6984 511.698L56.3785 510.378C56.1233 510.124 55.7446 510.039 55.405 510.16C55.0657 510.282 54.8262 510.588 54.7905 510.946L54.5923 512.919C50.0044 516.151 45.9963 520.135 42.7371 524.704L41.1024 526.998C40.8381 527.368 40.8794 527.875 41.1994 528.197L45.1591 532.157C45.4814 532.479 45.9896 532.522 46.3608 532.257L48.6555 530.622C53.2237 527.363 57.208 523.355 60.4398 518.767L62.4129 518.569C62.7725 518.533 63.0787 518.293 63.1995 517.952C63.3203 517.612 63.234 517.233 62.9781 516.978L61.6582 515.658L66.2779 511.038L69.1205 513.881L67.1586 518.196C66.3601 519.968 66.7374 522.048 68.1073 523.427L73.2201 528.54L73.0222 530.322C72.7757 532.513 71.7945 534.556 70.2377 536.117C69.8732 536.481 69.8732 537.072 70.2377 537.437L72.2176 539.417L65.1559 546.479L63.8401 546.739C63.1657 546.875 62.6207 547.371 62.4226 548.03C62.2241 548.688 62.4039 549.403 62.8911 549.889L67.5979 554.596C69.4214 556.416 72.3736 556.415 74.1975 554.596L80.6801 548.113C85.2009 543.595 88.9625 538.376 91.8189 532.658C92.291 531.707 93.2622 531.107 94.3237 531.111L96.2031 531.111ZM84.0969 507.739L86.7367 510.378L85.4168 511.698L82.777 509.059L84.0969 507.739ZM70.2377 499.159L74.1975 503.119L72.8775 504.439L70.2377 501.799L68.9178 503.119L71.5576 505.759L70.2377 507.079L67.5978 504.439L66.2779 505.759L68.9178 508.399L67.5978 509.719L63.6381 505.759L70.2377 499.159ZM60.5223 495.675L61.4026 496.115L60.5935 496.924L60.1539 496.044L60.5223 495.675ZM61.2715 500.752L61.2712 498.886L63.3648 496.793L65.2313 496.793L67.5978 499.159L63.6381 503.119L61.2715 500.752ZM48.9729 528.051L47.139 526.218L45.8191 527.537L47.4597 529.178L45.92 530.278L43.0784 527.437L44.2562 525.788C47.4755 521.277 51.4523 517.359 56.0095 514.206C56.2351 514.05 56.3804 513.804 56.4069 513.531L56.451 513.091L60.2658 516.906L59.8252 516.95C59.5526 516.976 59.3061 517.122 59.1508 517.347C56.3311 521.42 52.8976 525.03 48.9729 528.051ZM60.3383 514.338L59.0183 513.018L63.6381 508.399L64.958 509.719L60.3383 514.338ZM72.1905 536.75C73.6332 535.049 74.5561 532.968 74.8494 530.757L74.8864 530.836C75.0041 531.101 75.1049 531.372 75.1881 531.65C75.1964 531.68 75.2009 531.711 75.2093 531.74C75.2786 531.996 75.3324 532.256 75.3701 532.518C75.3798 532.582 75.3904 532.646 75.3978 532.71C75.4317 532.991 75.4468 533.274 75.4433 533.558C75.4426 533.61 75.4381 533.662 75.4362 533.714C75.4272 533.967 75.4036 534.219 75.3656 534.469C75.3576 534.524 75.3518 534.579 75.3418 534.634C75.2909 534.914 75.2222 535.191 75.1359 535.462C75.1168 535.522 75.0949 535.581 75.074 535.641C74.987 535.89 74.8851 536.134 74.7688 536.371C74.7524 536.406 74.7385 536.44 74.7208 536.474C74.5848 536.736 74.4308 536.988 74.26 537.228C74.2203 537.283 74.1788 537.34 74.1366 537.395C73.9535 537.643 73.7537 537.877 73.5375 538.097L72.1905 536.75ZM90.1445 531.834C87.3783 537.368 83.7369 542.42 79.3602 546.793L72.8775 553.276C71.7838 554.37 70.0112 554.369 68.9178 553.276L64.211 548.569L65.8007 548.252C65.9815 548.215 66.1471 548.126 66.2779 547.996L74.8574 539.417C78.1328 536.134 78.1324 530.82 74.8574 527.537L69.4272 522.107C68.6049 521.28 68.3783 520.032 68.8582 518.969L71.0175 514.218L72.8775 512.358L71.5576 511.038L70.2377 512.358L68.9178 511.038L75.5174 504.439L87.3967 516.318L86.0768 517.638L87.3967 518.958L88.7166 517.638L90.0366 518.958L88.7166 520.278L90.0366 521.598L91.3565 520.278L92.6764 521.598L91.3565 522.918L92.6764 524.238L93.9963 522.918L95.3162 524.238L93.9963 525.558L95.3163 526.878L96.6362 525.558L97.4096 526.331C97.8975 526.82 98.0431 527.554 97.7792 528.191C97.5149 528.829 96.8927 529.245 96.2024 529.245L94.3234 529.244C92.5504 529.239 90.9289 530.243 90.1445 531.834Z" fill="#333333"/>
<path d="M76.8373 513.678L78.1572 514.998L74.1974 518.958L72.8775 517.638L76.8373 513.678Z" fill="#333333"/>
<path d="M79.4772 516.318L80.7971 517.638L76.8373 521.598L75.5174 520.278L79.4772 516.318Z" fill="#333333"/>
<path d="M82.117 518.958L83.4369 520.278L79.4771 524.238L78.1572 522.918L82.117 518.958Z" fill="#333333"/>
<path d="M84.0969 530.177C83.0035 529.084 81.2305 529.084 80.1371 530.177C79.0434 531.271 79.0437 533.044 80.1371 534.137C81.2305 535.231 83.0032 535.231 84.0969 534.137C85.1903 533.044 85.1903 531.271 84.0969 530.177ZM81.457 532.817C81.0926 532.453 81.0926 531.862 81.457 531.497C81.8215 531.133 82.4125 531.133 82.777 531.497C83.1414 531.862 83.1414 532.453 82.777 532.817C82.4125 533.182 81.8215 533.182 81.457 532.817Z" fill="#333333"/>
</g>
<g clip-path="url(#clip5)">
<path d="M943.993 419.111C942.548 419.111 941.245 418.241 940.692 416.905C940.139 415.57 940.445 414.033 941.466 413.011L953.459 401.018L951.479 399.038C951.115 398.674 951.115 398.083 951.479 397.719L955.439 393.759C955.804 393.394 956.395 393.394 956.759 393.759L958.739 395.739L969.298 385.179C969.663 384.815 970.254 384.815 970.618 385.179L971.278 385.839L973.918 383.199C974.093 383.025 974.33 382.926 974.578 382.926H976.997L979.44 381.705C979.8 381.525 980.234 381.596 980.518 381.879L982.498 379.9L983.817 381.219L981.838 383.199C982.122 383.484 982.192 383.918 982.013 384.277L980.791 386.72L980.791 389.139C980.791 389.386 980.693 389.624 980.518 389.799L977.878 392.439L978.538 393.099C978.902 393.463 978.902 394.054 978.538 394.419L977.878 395.079L982.498 399.698L983.817 398.378C984.073 398.124 984.451 398.039 984.791 398.16C985.13 398.282 985.37 398.588 985.405 398.946L985.604 400.919C990.191 404.151 994.2 408.135 997.459 412.704L999.094 414.998C999.358 415.368 999.317 415.875 998.997 416.197L995.037 420.157C994.715 420.479 994.206 420.522 993.835 420.257L991.54 418.622C986.972 415.363 982.988 411.355 979.756 406.767L977.783 406.569C977.423 406.533 977.117 406.293 976.996 405.952C976.876 405.612 976.962 405.233 977.218 404.978L978.538 403.658L973.918 399.038L971.075 401.881L973.037 406.196C973.836 407.968 973.458 410.048 972.089 411.427L966.976 416.54L967.174 418.322C967.42 420.513 968.401 422.556 969.958 424.117C970.323 424.481 970.323 425.072 969.958 425.437L967.978 427.417L975.04 434.479L976.356 434.739C977.03 434.875 977.575 435.371 977.773 436.03C977.972 436.688 977.792 437.403 977.305 437.889L972.598 442.596C970.774 444.416 967.822 444.415 965.998 442.596L959.516 436.113C954.995 431.595 951.233 426.376 948.377 420.658C947.905 419.707 946.934 419.107 945.872 419.111L943.993 419.111ZM956.099 395.739L953.459 398.378L954.779 399.698L957.419 397.059L956.099 395.739ZM969.958 387.159L965.998 391.119L967.318 392.439L969.958 389.799L971.278 391.119L968.638 393.759L969.958 395.079L972.598 392.439L973.918 393.759L971.278 396.399L972.598 397.719L976.558 393.759L969.958 387.159ZM979.674 383.675L978.793 384.115L979.602 384.924L980.042 384.044L979.674 383.675ZM978.924 388.752L978.925 386.886L976.831 384.793L974.965 384.793L972.598 387.159L976.558 391.119L978.924 388.752ZM991.223 416.051L993.057 414.218L994.377 415.537L992.736 417.178L994.276 418.278L997.118 415.437L995.94 413.788C992.72 409.277 988.744 405.359 984.186 402.206C983.961 402.05 983.815 401.804 983.789 401.531L983.745 401.091L979.93 404.906L980.371 404.95C980.643 404.976 980.89 405.122 981.045 405.347C983.865 409.42 987.298 413.03 991.223 416.051ZM979.858 402.338L981.178 401.018L976.558 396.399L975.238 397.719L979.858 402.338ZM968.005 424.75C966.563 423.049 965.64 420.968 965.347 418.757L965.309 418.836C965.192 419.101 965.091 419.372 965.008 419.65C964.999 419.68 964.995 419.711 964.987 419.74C964.917 419.996 964.863 420.256 964.826 420.518C964.816 420.582 964.805 420.646 964.798 420.71C964.764 420.991 964.749 421.274 964.753 421.558C964.753 421.61 964.758 421.662 964.76 421.714C964.769 421.967 964.792 422.219 964.83 422.469C964.838 422.524 964.844 422.579 964.854 422.634C964.905 422.914 964.974 423.191 965.06 423.462C965.079 423.522 965.101 423.581 965.122 423.641C965.209 423.89 965.311 424.134 965.427 424.371C965.444 424.406 965.457 424.44 965.475 424.474C965.611 424.736 965.765 424.988 965.936 425.228C965.976 425.283 966.017 425.34 966.059 425.395C966.242 425.643 966.442 425.877 966.658 426.097L968.005 424.75ZM950.051 419.834C952.818 425.368 956.459 430.42 960.836 434.793L967.318 441.276C968.412 442.37 970.185 442.369 971.278 441.276L975.985 436.569L974.395 436.252C974.214 436.215 974.049 436.126 973.918 435.996L965.338 427.417C962.063 424.134 962.063 418.82 965.338 415.537L970.769 410.107C971.591 409.28 971.818 408.032 971.338 406.969L969.178 402.218L967.318 400.358L968.638 399.038L969.958 400.358L971.278 399.038L964.679 392.439L952.799 404.318L954.119 405.638L952.799 406.958L951.479 405.638L950.159 406.958L951.479 408.278L950.159 409.598L948.839 408.278L947.52 409.598L948.839 410.918L947.52 412.238L946.2 410.918L944.88 412.238L946.2 413.558L944.88 414.878L943.56 413.558L942.786 414.331C942.298 414.82 942.153 415.554 942.417 416.191C942.681 416.829 943.303 417.245 943.993 417.245L945.873 417.244C947.646 417.239 949.267 418.243 950.051 419.834Z" fill="#333333"/>
<path d="M963.359 401.678L962.039 402.998L965.999 406.958L967.318 405.638L963.359 401.678Z" fill="#333333"/>
<path d="M960.719 404.318L959.399 405.638L963.359 409.598L964.679 408.278L960.719 404.318Z" fill="#333333"/>
<path d="M958.079 406.958L956.759 408.278L960.719 412.238L962.039 410.918L958.079 406.958Z" fill="#333333"/>
<path d="M956.099 418.177C957.192 417.084 958.965 417.084 960.059 418.177C961.153 419.271 961.152 421.044 960.059 422.137C958.965 423.231 957.193 423.231 956.099 422.137C955.006 421.044 955.006 419.271 956.099 418.177ZM958.739 420.817C959.103 420.453 959.103 419.862 958.739 419.497C958.374 419.133 957.783 419.133 957.419 419.497C957.054 419.862 957.054 420.453 957.419 420.817C957.783 421.182 958.374 421.182 958.739 420.817Z" fill="#333333"/>
</g>
<g clip-path="url(#clip6)">
<path d="M196.225 266.409L187.151 257.335C185.764 255.947 183.741 255.407 181.847 255.919L180.869 254.942C179.71 253.781 178.005 253.351 176.433 253.825L169.161 256.008C166.953 256.661 165.613 258.897 166.078 261.152C165.167 261.844 164.495 262.803 164.155 263.895L162.56 269.042L150.853 257.335C150.495 256.977 149.914 256.977 149.556 257.335L139.185 267.705C138.827 268.063 138.827 268.644 139.185 269.002L141.778 271.595C142.136 271.952 142.717 271.952 143.075 271.595L146.315 268.354L160.575 282.614C160.631 282.658 160.691 282.695 160.755 282.724C160.9 282.914 161.056 283.093 161.224 283.262L175.484 297.522C178.707 300.739 183.927 300.739 187.151 297.522L196.225 288.447C202.301 282.358 202.301 272.498 196.225 266.409ZM169.687 257.76L176.962 255.579C177.887 255.301 178.891 255.554 179.573 256.238L179.856 256.522L173.653 258.447L167.811 260.26C167.822 259.107 168.581 258.095 169.686 257.761L169.687 257.76ZM150.205 259.279L151.501 260.575C152.933 262.007 152.933 264.329 151.501 265.761C150.069 267.193 147.747 267.193 146.315 265.761L145.019 264.465L150.205 259.279ZM142.426 269.65L141.13 268.354L143.723 265.761L145.019 267.057L142.426 269.65ZM149.206 268.652C152.01 268.51 154.25 266.269 154.392 263.466L156.686 265.761L154.742 267.705L156.038 269.002L157.983 267.057L159.279 268.354L157.335 270.298L158.631 271.595L160.575 269.65L161.872 270.946L159.927 272.891L161.025 273.988L159.858 277.747C159.788 277.976 159.733 278.207 159.693 278.442C159.676 278.548 159.669 278.655 159.657 278.761C159.645 278.869 159.627 278.968 159.621 279.073L149.206 268.652ZM185.855 296.225C183.347 298.727 179.288 298.727 176.78 296.225L162.52 281.965C162.348 281.789 162.194 281.595 162.06 281.389C162.054 281.383 162.055 281.374 162.051 281.368C161.618 280.703 161.412 279.916 161.464 279.125C161.467 279.088 161.471 279.051 161.475 279.014C161.496 278.768 161.543 278.525 161.614 278.289L163.859 271.033L165.906 264.435C166.182 263.554 166.779 262.809 167.58 262.349C167.812 262.213 168.059 262.104 168.315 262.023L181.844 257.829L182.167 257.728C183.468 257.317 184.89 257.665 185.855 258.631L194.929 267.705C200.29 273.079 200.29 281.778 194.929 287.151L185.855 296.225Z" fill="#333333"/>
<path d="M190.392 268.354C185.38 263.342 177.254 263.342 172.243 268.354C167.231 273.365 167.231 281.491 172.243 286.503C177.254 291.514 185.38 291.514 190.392 286.503C195.396 281.488 195.396 273.368 190.392 268.354ZM173.539 285.206C169.243 280.911 169.243 273.946 173.539 269.65C177.835 265.354 184.8 265.354 189.095 269.65C193.391 273.946 193.391 280.911 189.095 285.206C184.797 289.495 177.838 289.495 173.539 285.206Z" fill="#333333"/>
<path d="M149.556 262.52L150.853 263.816L149.556 265.113L148.26 263.816L149.556 262.52Z" fill="#333333"/>
<path d="M178.415 269.341C178.141 269.066 177.723 268.994 177.372 269.161C175.474 270.057 173.946 271.585 173.05 273.483C172.883 273.834 172.955 274.251 173.23 274.526L184.219 285.516C184.494 285.79 184.911 285.862 185.262 285.695C187.16 284.799 188.688 283.271 189.584 281.373C189.751 281.022 189.679 280.605 189.405 280.33L178.415 269.341ZM185.037 283.741L175.005 273.708C175.629 272.633 176.522 271.739 177.597 271.116L187.63 281.148C187.006 282.223 186.112 283.117 185.037 283.741Z" fill="#333333"/>
</g>
<g clip-path="url(#clip7)">
<path d="M82.9293 102.409C85.8369 99.5016 84.6982 93.8073 80.3366 89.4457C75.9751 85.0842 70.2808 83.9455 67.3732 86.8531C66.0534 88.2817 65.4876 90.2503 65.8474 92.1615L63.9561 99.3446L63.1278 100.173L61.3893 99.0477L60.3924 100.587L61.8027 101.498L59.2394 104.061L57.5009 102.936L56.504 104.475L57.9136 105.387L55.3504 107.95L53.6119 106.825L52.615 108.364L54.0246 109.276L51.4614 111.839L49.7229 110.714L48.7259 112.253L50.1356 113.165L47.5723 115.728L45.8339 114.603L44.8369 116.142L46.2466 117.054L44.039 119.262C43.9384 119.362 43.8624 119.484 43.8175 119.619L43.739 119.856L42.5807 119.132L41.6084 120.688L43.1421 121.645L41.2248 127.397C41.114 127.727 41.1998 128.091 41.4457 128.337C41.6916 128.583 42.055 128.668 42.3851 128.558L50.091 125.989L51.9791 127.169L52.9514 125.614L51.5351 124.729L54.1173 122.147L55.8558 123.272L56.8528 121.733L55.4431 120.821L58.0064 118.258L59.7449 119.383L60.7418 117.844L59.3321 116.932L61.8954 114.369L63.6339 115.494L64.6308 113.955L63.2212 113.043L65.7844 110.48L67.5229 111.605L68.5198 110.066L67.1102 109.154L69.6735 106.591L71.4119 107.716L72.4089 106.177L71.4521 105.559L77.6208 103.935C79.5318 104.295 81.5007 103.729 82.9293 102.409ZM68.6695 88.1494C70.7774 86.0416 75.5272 87.2291 79.0403 90.7421C82.5533 94.2551 83.7408 99.005 81.633 101.113C79.5251 103.221 74.7753 102.033 71.2622 98.5201C67.7492 95.0071 66.5617 90.2572 68.6695 88.1494ZM43.5437 126.239L44.7442 122.642L48.0512 124.71L43.5437 126.239ZM49.9375 123.734L45.336 120.858L45.4883 120.405L47.8217 118.072L52.5438 121.128L49.9375 123.734ZM53.8667 119.805L49.1466 116.747L51.7101 114.183L56.4322 117.239L53.8667 119.805ZM57.7557 115.916L53.0356 112.858L55.5992 110.294L60.3212 113.35L57.7557 115.916ZM61.6447 112.027L56.9246 108.969L59.4882 106.405L64.2102 109.461L61.6447 112.027ZM65.5338 108.138L60.8136 105.08L63.3772 102.516L68.0992 105.572L65.5338 108.138ZM69.7304 104.117C69.6263 104.147 69.5279 104.195 69.4408 104.26L64.7027 101.191L65.4287 100.465C65.5423 100.35 65.6236 100.208 65.6645 100.052L66.8624 95.5008C68.4575 98.7189 71.0635 101.325 74.2815 102.92L69.7304 104.117Z" fill="#333333"/>
<path d="M71.9104 96.5756L73.2067 97.872L75.1513 95.9275L79.0403 99.8165L80.3366 98.5201L76.4476 94.6311L78.3921 92.6866L77.0958 91.3903L75.1513 93.3348L71.2622 89.4457L69.9659 90.7421L73.8549 94.6311L71.9104 96.5756Z" fill="#333333"/>
</g>
<g clip-path="url(#clip8)">
<path d="M1145.28 44.7623C1148.19 41.8547 1147.05 36.1604 1142.69 31.7989C1138.33 27.4373 1132.63 26.2986 1129.73 29.2062C1128.41 30.6348 1127.84 32.6034 1128.2 34.5147L1126.31 41.6977L1125.48 42.526L1123.74 41.4009L1122.75 42.9396L1124.16 43.8511L1121.59 46.4144L1119.85 45.2892L1118.86 46.828L1120.27 47.7401L1117.7 50.3034L1115.97 49.1783L1114.97 50.717L1116.38 51.6292L1113.81 54.1924L1112.08 53.0673L1111.08 54.6061L1112.49 55.5182L1109.93 58.0814L1108.19 56.9563L1107.19 58.4951L1108.6 59.4072L1106.39 61.6147C1106.29 61.7154 1106.22 61.8375 1106.17 61.9724L1106.09 62.2091L1104.93 61.485L1103.96 63.0408L1105.5 63.9985L1103.58 69.7504C1103.47 70.0802 1103.55 70.4439 1103.8 70.6898C1104.04 70.9357 1104.41 71.0211 1104.74 70.9107L1112.44 68.342L1114.33 69.5225L1115.3 67.9667L1113.89 67.0821L1116.47 64.4999L1118.21 65.625L1119.21 64.0862L1117.8 63.1741L1120.36 60.6108L1122.1 61.736L1123.09 60.1972L1121.69 59.2851L1124.25 56.7218L1125.99 57.8469L1126.98 56.3082L1125.57 55.396L1128.14 52.8328L1129.88 53.9579L1130.87 52.4191L1129.46 51.507L1132.03 48.9437L1133.77 50.0689L1134.76 48.5301L1133.81 47.912L1139.97 46.2881C1141.88 46.6476 1143.85 46.082 1145.28 44.7623ZM1131.02 30.5025C1133.13 28.3947 1137.88 29.5822 1141.39 33.0952C1144.91 36.6082 1146.09 41.3581 1143.99 43.4659C1141.88 45.5738 1137.13 44.3863 1133.62 40.8733C1130.1 37.3602 1128.91 32.6103 1131.02 30.5025ZM1105.9 68.5918L1107.1 64.9955L1110.4 67.0631L1105.9 68.5918ZM1112.29 66.0871L1107.69 63.2111L1107.84 62.7582L1110.17 60.4247L1114.9 63.4808L1112.29 66.0871ZM1116.22 62.1578L1111.5 59.0999L1114.06 56.5363L1118.79 59.5924L1116.22 62.1578ZM1120.11 58.2688L1115.39 55.2109L1117.95 52.6473L1122.67 55.7033L1120.11 58.2688ZM1124 54.3798L1119.28 51.3219L1121.84 48.7583L1126.56 51.8143L1124 54.3798ZM1127.89 50.4908L1123.17 47.4328L1125.73 44.8693L1130.45 47.9253L1127.89 50.4908ZM1132.08 46.4701C1131.98 46.5001 1131.88 46.5486 1131.79 46.6134L1127.06 43.5438L1127.78 42.8178C1127.9 42.7035 1127.98 42.5614 1128.02 42.4054L1129.22 37.8539C1130.81 41.072 1133.42 43.678 1136.63 45.2731L1132.08 46.4701Z" fill="#333333"/>
<path d="M1133.91 38.5756L1135.21 39.8719L1137.15 37.9274L1141.04 41.8165L1142.34 40.5201L1138.45 36.6311L1140.39 34.6866L1139.1 33.3902L1137.15 35.3347L1133.26 31.4457L1131.97 32.7421L1135.85 36.6311L1133.91 38.5756Z" fill="#333333"/>
</g>
<g clip-path="url(#clip9)">
<path d="M1394.28 273.762C1397.19 270.855 1396.05 265.16 1391.69 260.799C1387.33 256.437 1381.63 255.299 1378.73 258.206C1377.41 259.635 1376.84 261.603 1377.2 263.515L1375.31 270.698L1374.48 271.526L1372.74 270.401L1371.75 271.94L1373.16 272.851L1370.59 275.414L1368.85 274.289L1367.86 275.828L1369.27 276.74L1366.7 279.303L1364.97 278.178L1363.97 279.717L1365.38 280.629L1362.81 283.192L1361.08 282.067L1360.08 283.606L1361.49 284.518L1358.93 287.081L1357.19 285.956L1356.19 287.495L1357.6 288.407L1355.39 290.615C1355.29 290.715 1355.22 290.838 1355.17 290.972L1355.09 291.209L1353.93 290.485L1352.96 292.041L1354.5 292.999L1352.58 298.75C1352.47 299.08 1352.55 299.444 1352.8 299.69C1353.04 299.936 1353.41 300.021 1353.74 299.911L1361.44 297.342L1363.33 298.523L1364.3 296.967L1362.89 296.082L1365.47 293.5L1367.21 294.625L1368.21 293.086L1366.8 292.174L1369.36 289.611L1371.1 290.736L1372.09 289.197L1370.69 288.285L1373.25 285.722L1374.99 286.847L1375.98 285.308L1374.57 284.396L1377.14 281.833L1378.88 282.958L1379.87 281.419L1378.46 280.507L1381.03 277.944L1382.77 279.069L1383.76 277.53L1382.81 276.912L1388.97 275.288C1390.88 275.648 1392.85 275.082 1394.28 273.762ZM1380.02 259.503C1382.13 257.395 1386.88 258.582 1390.39 262.095C1393.91 265.608 1395.09 270.358 1392.99 272.466C1390.88 274.574 1386.13 273.386 1382.62 269.873C1379.1 266.36 1377.91 261.61 1380.02 259.503ZM1354.9 297.592L1356.1 293.995L1359.4 296.063L1354.9 297.592ZM1361.29 295.087L1356.69 292.211L1356.84 291.758L1359.17 289.425L1363.9 292.481L1361.29 295.087ZM1365.22 291.158L1360.5 288.1L1363.06 285.536L1367.79 288.592L1365.22 291.158ZM1369.11 287.269L1364.39 284.211L1366.95 281.647L1371.67 284.703L1369.11 287.269ZM1373 283.38L1368.28 280.322L1370.84 277.758L1375.56 280.814L1373 283.38ZM1376.89 279.491L1372.17 276.433L1374.73 273.869L1379.45 276.925L1376.89 279.491ZM1381.08 275.47C1380.98 275.5 1380.88 275.549 1380.79 275.613L1376.06 272.544L1376.78 271.818C1376.9 271.704 1376.98 271.561 1377.02 271.405L1378.22 266.854C1379.81 270.072 1382.42 272.678 1385.63 274.273L1381.08 275.47Z" fill="#333333"/>
<path d="M1382.91 267.576L1384.21 268.872L1386.15 266.927L1390.04 270.816L1391.34 269.52L1387.45 265.631L1389.39 263.687L1388.1 262.39L1386.15 264.335L1382.26 260.446L1380.97 261.742L1384.85 265.631L1382.91 267.576Z" fill="#333333"/>
</g>
<g clip-path="url(#clip10)">
<path d="M1815.86 483.849C1815.55 482.494 1814.66 481.344 1813.43 480.7L1803.37 475.522C1802.94 475.293 1802.59 474.929 1802.37 474.485C1801.98 473.657 1801.19 473.096 1800.28 473.013C1799.37 472.93 1798.48 473.336 1797.95 474.08L1790.06 484.959L1760.2 522.654C1759.91 523.02 1759.94 523.546 1760.26 523.882L1764.93 528.716C1765.1 528.898 1765.35 529 1765.6 529C1765.65 529 1765.71 528.996 1765.76 528.987L1768.4 528.533C1768.78 528.468 1769.09 528.17 1769.16 527.787L1769.49 526.033L1771.16 526.372C1771.4 526.422 1771.66 526.371 1771.86 526.232C1772.07 526.093 1772.21 525.877 1772.26 525.631L1772.59 523.878L1774.26 524.216C1774.5 524.266 1774.75 524.216 1774.96 524.076C1775.17 523.937 1775.31 523.721 1775.36 523.476L1775.69 521.723L1777.36 522.061C1777.6 522.111 1777.85 522.06 1778.06 521.921C1778.27 521.781 1778.41 521.565 1778.46 521.32L1778.79 519.567L1780.45 519.906C1780.7 519.955 1780.95 519.904 1781.16 519.766C1781.37 519.627 1781.51 519.41 1781.56 519.165L1781.89 517.411L1783.55 517.75C1783.8 517.8 1784.05 517.75 1784.26 517.61C1784.47 517.471 1784.61 517.254 1784.66 517.009L1784.99 515.257L1786.65 515.595C1786.9 515.645 1787.15 515.594 1787.36 515.455C1787.57 515.316 1787.71 515.099 1787.76 514.854L1788.09 513.101L1789.75 513.44C1790 513.49 1790.25 513.44 1790.46 513.3C1790.67 513.161 1790.81 512.945 1790.86 512.699L1791.19 510.946L1792.85 511.284C1793.1 511.334 1793.35 511.284 1793.56 511.145C1793.77 511.006 1793.91 510.789 1793.95 510.544L1794.29 508.79L1795.95 509.128C1796.2 509.178 1796.45 509.127 1796.66 508.988C1796.87 508.849 1797.01 508.632 1797.05 508.387L1797.39 506.634L1799.05 506.974C1799.3 507.023 1799.55 506.973 1799.76 506.834C1799.96 506.694 1800.11 506.478 1800.15 506.233L1800.49 504.478L1802.15 504.818C1802.4 504.867 1802.65 504.817 1802.86 504.678C1803.06 504.539 1803.21 504.323 1803.25 504.077L1803.59 502.327L1805.25 502.665C1805.49 502.715 1805.75 502.665 1805.96 502.526C1806.16 502.387 1806.31 502.17 1806.35 501.925L1806.69 500.172L1808.35 500.51C1808.62 500.563 1808.9 500.496 1809.12 500.324L1810.98 498.83C1811.37 498.52 1811.45 497.96 1811.16 497.557L1809.65 495.449L1815.08 487.855C1815.91 486.698 1816.2 485.236 1815.86 483.849ZM1808.29 498.593L1806.13 498.154C1805.88 498.104 1805.63 498.154 1805.42 498.293C1805.21 498.432 1805.07 498.649 1805.03 498.894L1804.69 500.647L1803.03 500.309C1802.78 500.26 1802.53 500.311 1802.32 500.449C1802.11 500.588 1801.97 500.805 1801.92 501.05L1801.59 502.802L1799.93 502.464C1799.68 502.415 1799.43 502.466 1799.22 502.604C1799.01 502.743 1798.87 502.96 1798.82 503.205L1798.49 504.958L1796.83 504.62C1796.58 504.57 1796.33 504.62 1796.12 504.759C1795.91 504.899 1795.77 505.115 1795.72 505.361L1795.39 507.113L1793.73 506.775C1793.48 506.726 1793.23 506.776 1793.02 506.915C1792.81 507.054 1792.67 507.27 1792.62 507.516L1792.29 509.269L1790.63 508.934C1790.39 508.885 1790.13 508.935 1789.92 509.074C1789.72 509.214 1789.57 509.43 1789.53 509.675L1789.2 511.428L1787.53 511.085C1787.29 511.036 1787.03 511.086 1786.83 511.225C1786.62 511.365 1786.48 511.581 1786.43 511.826L1786.1 513.58L1784.43 513.241C1784.19 513.193 1783.94 513.243 1783.73 513.382C1783.52 513.522 1783.38 513.738 1783.33 513.982L1783 515.735L1781.34 515.396C1781.09 515.347 1780.84 515.397 1780.63 515.537C1780.42 515.676 1780.28 515.892 1780.23 516.137L1779.9 517.894L1778.23 517.555C1777.99 517.506 1777.73 517.556 1777.53 517.695C1777.32 517.834 1777.18 518.051 1777.13 518.296L1776.8 520.046L1775.14 519.708C1774.89 519.657 1774.64 519.708 1774.43 519.847C1774.22 519.986 1774.08 520.203 1774.03 520.449L1773.7 522.201L1772.04 521.863C1771.8 521.813 1771.54 521.864 1771.33 522.003C1771.13 522.142 1770.98 522.358 1770.94 522.603L1770.6 524.357L1768.94 524.018C1768.7 523.969 1768.44 524.019 1768.23 524.159C1768.03 524.297 1767.88 524.514 1767.84 524.759L1767.45 526.805L1765.93 527.064L1762.17 523.173L1790.78 487.059L1797.52 495.961C1797.7 496.196 1797.97 496.334 1798.27 496.334H1807.98L1809.13 497.921L1808.29 498.593ZM1813.56 486.765L1808.05 494.468H1798.73L1791.96 485.522L1799.45 475.175C1799.61 474.976 1799.85 474.87 1800.1 474.894C1800.35 474.92 1800.57 475.071 1800.69 475.297C1801.08 476.107 1801.72 476.769 1802.52 477.184L1812.57 482.359C1813.32 482.753 1813.86 483.455 1814.05 484.279C1814.26 485.14 1814.08 486.048 1813.56 486.765Z" fill="#333333"/>
<path d="M1807.68 483.673L1802.3 480.801C1800.89 480.044 1799.13 480.457 1798.21 481.765C1797.64 482.557 1797.44 483.556 1797.66 484.506C1797.87 485.437 1798.47 486.231 1799.31 486.684L1804.69 489.556C1806.1 490.315 1807.86 489.9 1808.78 488.588C1809.35 487.797 1809.55 486.797 1809.33 485.847C1809.12 484.917 1808.52 484.125 1807.68 483.673ZM1807.27 487.499C1806.89 488.046 1806.16 488.223 1805.57 487.912L1800.19 485.041C1799.83 484.842 1799.57 484.496 1799.48 484.091C1799.38 483.666 1799.47 483.219 1799.72 482.864C1799.97 482.511 1800.38 482.301 1800.81 482.298C1801.02 482.298 1801.23 482.351 1801.42 482.452L1806.8 485.321C1807.16 485.52 1807.42 485.866 1807.51 486.271C1807.61 486.696 1807.52 487.143 1807.27 487.497V487.499Z" fill="#333333"/>
<path d="M1764.67 521.533H1766.53V523.466H1764.67V521.533Z" fill="#333333"/>
<path d="M1778.48 506.465L1785.86 496.926L1787.33 498.067L1779.96 507.606L1778.48 506.465Z" fill="#333333"/>
<path d="M1787 495.443L1788.2 493.896L1789.67 495.037L1788.48 496.584L1787 495.443Z" fill="#333333"/>
</g>
<g clip-path="url(#clip11)">
<path d="M1673.18 54.2373C1672.82 53.8797 1672.24 53.8797 1671.89 54.2373L1671.62 54.5059L1668.63 51.516L1670.37 50.0949C1670.57 49.9311 1670.69 49.6898 1670.7 49.4311C1670.72 49.1728 1670.62 48.9204 1670.44 48.7373L1662.63 40.9322C1657.49 35.7621 1650.49 32.8648 1643.2 32.8854C1642.7 32.8854 1642.28 33.2959 1642.28 33.8021V36.5521C1642.28 37.0145 1642.63 37.4043 1643.09 37.4616C1647.64 38.0372 1651.87 40.106 1655.11 43.343L1655.75 43.9844L1651.62 49.7695C1651.36 50.1343 1651.4 50.6338 1651.72 50.9502L1652.45 51.6771L1643.56 60.569L1637.24 64.1734C1637.17 64.2137 1637.11 64.2634 1637.05 64.3207L1622.38 78.9874C1622.02 79.3455 1622.02 79.9255 1622.38 80.2836L1629.72 87.617C1630.07 87.975 1630.65 87.975 1631.01 87.617L1645.68 72.9503C1645.74 72.8925 1645.79 72.8276 1645.83 72.7569L1649.43 66.4468L1658.33 57.5549L1659.05 58.2818C1659.39 58.6148 1659.92 58.6412 1660.28 58.3431L1662.57 56.4659L1665.79 60.3277L1665.47 60.6522C1665.11 61.0103 1665.11 61.5904 1665.47 61.9485L1669.13 65.6151C1669.49 65.9732 1670.07 65.9732 1670.43 65.6151L1676.85 59.1985C1677.2 58.8404 1677.2 58.2603 1676.85 57.9022L1673.18 54.2373ZM1644.3 71.7413L1630.37 85.6726L1624.33 79.6355L1638.26 65.7024L1643.97 62.4435L1647.56 66.0368L1644.3 71.7413ZM1648.7 64.591L1645.41 61.3021L1653.74 52.9733L1657.03 56.2605L1648.7 64.591ZM1659.76 56.4028L1653.56 50.205L1657.7 44.4199C1657.96 44.0555 1657.92 43.556 1657.6 43.2391L1656.41 42.0476C1653.07 38.7189 1648.77 36.5199 1644.12 35.7585V34.7353C1650.6 34.9488 1656.76 37.629 1661.33 42.228L1668.42 49.3179L1666.68 50.7385L1662.35 54.2817L1659.76 56.4028ZM1664 55.308L1667.2 52.6846L1670.32 55.8012L1667.1 59.027L1664 55.308ZM1669.78 63.6726L1667.41 61.3021L1672.53 56.1817L1674.91 58.5521L1669.78 63.6726Z" fill="#333333"/>
<path d="M1637.6 69.2764L1638.89 67.9873L1640.18 69.2836L1638.89 70.5726L1637.6 69.2764Z" fill="#333333"/>
<path d="M1631.55 75.3207L1636.48 70.3936L1637.78 71.6903L1632.85 76.6169L1631.55 75.3207Z" fill="#333333"/>
</g>
<g clip-path="url(#clip12)">
<path d="M1534.67 436.272C1532.64 436.272 1531 434.63 1531 432.606C1531 430.582 1532.64 428.941 1534.67 428.941C1536.69 428.941 1538.33 430.582 1538.33 432.606C1538.33 434.63 1536.69 436.272 1534.67 436.272ZM1534.67 430.774C1533.65 430.774 1532.83 431.594 1532.83 432.606C1532.83 433.618 1533.65 434.439 1534.67 434.439C1535.68 434.439 1536.5 433.618 1536.5 432.606C1536.5 431.594 1535.68 430.774 1534.67 430.774Z" fill="#333333"/>
<path d="M1534.86 439.937H1534.57C1532.62 439.932 1530.76 439.136 1529.41 437.731L1512.26 419.086C1510.42 417.085 1508.03 415.675 1505.39 415.035L1495.92 412.729C1490.68 411.36 1487.02 406.623 1487.02 401.202V394.674C1486.84 392.265 1488.05 389.966 1490.14 388.75C1490.57 388.493 1491.13 388.635 1491.39 389.068L1496.84 398.19C1497.09 398.609 1497.62 398.758 1498.05 398.531L1502.72 396.069L1497.24 387.374C1497.14 387.226 1497.1 387.055 1497.1 386.881V386.187C1497.1 385.768 1497.38 385.402 1497.79 385.299C1500.89 384.633 1504.12 385.166 1506.84 386.789C1508.61 388.165 1510.28 389.655 1511.85 391.253L1513.15 390.567L1514.6 389.773C1516.59 388.692 1519.07 389.389 1520.21 391.345C1521.34 393.301 1520.72 395.805 1518.79 396.996L1518.17 397.381V402.211C1518.17 406.131 1519.84 409.864 1522.77 412.474L1539.25 427.165C1540.67 428.297 1541.62 429.918 1541.92 431.712C1542.23 433.771 1541.63 435.865 1540.28 437.446C1538.92 439.026 1536.94 439.936 1534.86 439.937ZM1505.83 388.316C1503.8 387.127 1501.44 386.634 1499.11 386.914L1504.34 395.211L1506.87 393.879L1510.15 392.151C1508.8 390.775 1507.35 389.494 1505.83 388.316ZM1518.9 393.928C1519.1 393.031 1518.75 392.102 1518.01 391.553C1517.28 391.004 1516.29 390.937 1515.48 391.381L1514.91 391.695L1517.53 395.626L1517.84 395.436C1518.39 395.101 1518.77 394.555 1518.9 393.928ZM1540.1 431.98C1539.87 430.624 1539.14 429.404 1538.06 428.557L1521.55 413.838C1518.24 410.881 1516.34 406.652 1516.34 402.211V397.144L1513.29 392.562L1498.91 400.147C1497.62 400.831 1496.02 400.384 1495.26 399.129L1490.33 390.859C1489.27 391.837 1488.73 393.243 1488.85 394.674V401.202C1488.85 405.784 1491.94 409.789 1496.37 410.952L1505.83 413.254C1508.82 413.98 1511.53 415.577 1513.61 417.845L1530.74 436.476C1531.74 437.515 1533.12 438.102 1534.57 438.104H1534.86C1536.41 438.104 1537.88 437.426 1538.89 436.249C1539.9 435.071 1540.34 433.512 1540.1 431.98Z" fill="#333333"/>
<path d="M1511.89 403.857L1502.06 408.781C1501.93 408.845 1501.79 408.879 1501.65 408.878C1501.3 408.879 1500.98 408.683 1500.83 408.373L1498.77 404.277C1498.55 403.824 1498.73 403.274 1499.18 403.047L1509.01 398.122C1509.46 397.896 1510.01 398.079 1510.24 398.531L1512.29 402.627C1512.52 403.08 1512.34 403.63 1511.88 403.857H1511.89ZM1506.97 404.272L1505.74 401.817L1504.1 402.642L1505.33 405.099L1506.97 404.272ZM1502.05 406.735L1503.69 405.91L1502.46 403.452L1500.82 404.277L1502.05 406.735ZM1509.02 400.171L1507.38 400.996L1508.61 403.454L1510.25 402.634L1509.02 400.171Z" fill="#333333"/>
</g>
<g clip-path="url(#clip13)">
<path d="M1848.49 189.473C1850.65 189.468 1852.41 187.708 1852.41 185.541C1852.4 183.373 1850.65 181.618 1848.48 181.619C1846.31 181.62 1844.55 183.378 1844.55 185.546C1844.56 187.716 1846.32 189.472 1848.49 189.473ZM1848.49 183.452C1849.64 183.456 1850.58 184.396 1850.57 185.551C1850.57 186.706 1849.63 187.64 1848.48 187.639C1847.32 187.638 1846.39 186.701 1846.39 185.546C1846.39 184.388 1847.33 183.452 1848.49 183.452Z" fill="#333333"/>
<path d="M1810.67 218.753C1812.69 218.753 1814.33 217.111 1814.33 215.087V214.17C1814.34 204.05 1822.54 195.85 1832.66 195.838H1832.76C1834.69 195.837 1836.56 195.159 1838.04 193.923L1840.02 192.273C1840.03 192.265 1840.04 192.251 1840.05 192.242C1840.06 192.232 1840.07 192.229 1840.08 192.219L1842.07 190.231C1842.55 190.89 1843.13 191.471 1843.79 191.953L1841.83 193.901C1841.8 193.924 1841.76 193.95 1841.73 193.978L1840.08 195.96C1838.84 197.445 1838.16 199.314 1838.16 201.246V201.338C1838.15 211.457 1829.95 219.658 1819.83 219.669H1818.92C1816.89 219.669 1815.25 221.311 1815.25 223.336C1815.25 225.36 1816.89 227.002 1818.92 227.002H1821.53C1834.76 226.987 1845.48 216.264 1845.5 203.031C1845.5 202.111 1845.77 201.212 1846.29 200.453L1847.12 199.243L1847.13 199.237L1851.15 195.224C1851.34 195.029 1851.44 194.755 1851.41 194.48L1851.26 192.983C1853.24 192.244 1854.85 190.739 1855.73 188.805L1856.84 188.417C1856.99 188.365 1857.13 188.272 1857.23 188.149L1858.5 186.672C1861.67 182.99 1862.78 177.956 1861.44 173.281V173.272L1861.44 173.254C1861.43 173.22 1861.41 173.192 1861.4 173.162C1861.39 173.122 1861.37 173.083 1861.35 173.045C1861.33 173.014 1861.31 172.983 1861.28 172.954C1861.26 172.919 1861.23 172.886 1861.21 172.855C1861.18 172.831 1861.15 172.808 1861.12 172.787C1861.09 172.76 1861.05 172.734 1861.02 172.712C1860.99 172.695 1860.95 172.681 1860.92 172.668C1860.88 172.65 1860.85 172.635 1860.81 172.621H1860.79C1856.08 171.279 1851.02 172.156 1847.04 175.004L1845.96 175.775C1845.77 175.908 1845.64 176.107 1845.59 176.332L1845.16 178.349C1843.25 179.223 1841.77 180.825 1841.05 182.797L1839.54 182.628C1839.26 182.599 1838.99 182.695 1838.79 182.891L1834.83 186.842L1833.55 187.713C1832.79 188.23 1831.89 188.507 1830.97 188.506C1817.74 188.52 1807.01 199.244 1807 212.477V215.087C1807 217.111 1808.64 218.753 1810.67 218.753ZM1844.77 199.422C1844.05 200.486 1843.66 201.743 1843.66 203.031C1843.65 215.252 1833.75 225.155 1821.53 225.169H1818.92C1817.9 225.169 1817.08 224.348 1817.08 223.336C1817.08 222.323 1817.9 221.503 1818.92 221.503H1819.83C1830.96 221.49 1839.98 212.469 1840 201.338V201.246C1840 199.744 1840.52 198.29 1841.49 197.135L1842.49 195.924L1845.26 198.7L1844.77 199.422ZM1857.11 185.481L1856.41 186.296C1856.43 186.047 1856.44 185.798 1856.44 185.55C1856.45 183.759 1855.84 182.02 1854.73 180.62L1860.02 175.34C1860.58 178.984 1859.51 182.689 1857.11 185.481ZM1846.28 179.855C1846.57 179.744 1846.78 179.494 1846.85 179.19L1847.3 177.056L1848.09 176.492C1851.17 174.288 1855 173.403 1858.73 174.033L1852.82 179.931C1852.64 180.103 1852.55 180.337 1852.55 180.58C1852.55 180.823 1852.64 181.057 1852.82 181.229C1854.2 182.578 1854.84 184.515 1854.54 186.422C1854.52 186.497 1854.52 186.571 1854.5 186.645C1854.46 186.867 1854.4 187.086 1854.34 187.301C1854.29 187.444 1854.24 187.587 1854.19 187.729C1853.48 189.566 1851.94 190.95 1850.03 191.447C1849.59 191.561 1849.3 191.979 1849.35 192.429L1849.54 194.235L1846.48 197.294L1843.76 194.575L1845.91 192.428C1846.11 192.222 1846.21 191.928 1846.17 191.637C1846.12 191.347 1845.94 191.096 1845.68 190.962C1844.56 190.384 1843.65 189.475 1843.07 188.359C1843.07 188.353 1843.07 188.345 1843.06 188.338C1842.95 188.121 1842.85 187.898 1842.76 187.671L1842.75 187.649C1842.68 187.444 1842.61 187.236 1842.56 187.023C1842.53 186.932 1842.52 186.84 1842.5 186.749C1842.47 186.604 1842.44 186.459 1842.42 186.312C1842.35 185.805 1842.35 185.29 1842.42 184.783C1842.46 184.523 1842.51 184.266 1842.58 184.012C1842.58 184.001 1842.58 183.989 1842.58 183.98C1843.08 182.089 1844.45 180.553 1846.28 179.855ZM1839.77 184.497L1840.6 184.589C1840.55 184.907 1840.53 185.228 1840.53 185.549C1840.53 185.835 1840.55 186.121 1840.58 186.406C1840.6 186.536 1840.62 186.663 1840.64 186.792C1840.66 186.92 1840.68 187.067 1840.71 187.199C1840.75 187.388 1840.8 187.573 1840.86 187.757L1840.9 187.902C1840.97 188.13 1841.05 188.353 1841.14 188.573L1839.44 190.273L1838.04 188.882L1836.71 187.552L1839.77 184.497ZM1808.83 212.477C1808.85 200.256 1818.75 190.352 1830.97 190.339C1832.26 190.34 1833.52 189.953 1834.58 189.229L1835.3 188.737L1838.08 191.505L1836.87 192.513C1835.71 193.476 1834.26 194.003 1832.76 194.005H1832.66C1821.53 194.018 1812.51 203.038 1812.5 214.17V215.087C1812.5 216.099 1811.68 216.92 1810.67 216.92C1809.65 216.92 1808.83 216.099 1808.83 215.087V212.477Z" fill="#333333"/>
</g>
<path d="M1142.48 306.731C1142.12 307.089 1141.54 307.089 1141.19 306.731L1096.27 261.814C1095.91 261.457 1095.91 260.876 1096.27 260.519L1104.52 252.269C1104.88 251.91 1105.46 251.91 1105.81 252.269L1150.73 297.186C1151.09 297.543 1151.09 298.124 1150.73 298.481L1142.48 306.731ZM1131.75 280.796L1128.73 283.815C1128.37 284.173 1127.79 284.173 1127.44 283.815L1119.19 275.564C1118.83 275.207 1118.83 274.626 1119.19 274.269L1122.2 271.25L1117.06 266.102C1117.07 266.285 1117.08 266.477 1117.08 266.667C1117.08 270.21 1114.21 273.083 1110.67 273.083C1110.48 273.083 1110.29 273.072 1110.1 273.056L1129.95 292.899C1129.93 292.716 1129.92 292.524 1129.92 292.334C1129.92 288.791 1132.79 285.921 1136.33 285.917C1136.52 285.917 1136.71 285.929 1136.9 285.945L1131.75 280.796ZM1111.65 262.197C1111.57 262.18 1111.5 262.169 1111.42 262.156C1111.2 262.121 1110.98 262.099 1110.76 262.092H1110.57C1110.35 262.099 1110.13 262.121 1109.92 262.156C1109.84 262.169 1109.76 262.18 1109.68 262.197C1109.67 262.197 1109.65 262.206 1109.64 262.21V271.123C1109.65 271.123 1109.67 271.133 1109.68 271.136C1109.76 271.154 1109.84 271.164 1109.92 271.177C1110.13 271.213 1110.35 271.234 1110.57 271.241C1110.63 271.241 1110.7 271.241 1110.76 271.241C1110.98 271.234 1111.2 271.213 1111.42 271.177C1111.5 271.164 1111.57 271.154 1111.65 271.136C1111.67 271.136 1111.68 271.127 1111.69 271.123V262.21C1111.67 262.206 1111.67 262.2 1111.65 262.197ZM1113.53 270.22C1113.66 270.122 1113.79 270.018 1113.91 269.907C1115.7 268.117 1115.7 265.216 1113.91 263.426C1113.79 263.316 1113.66 263.211 1113.53 263.114V270.22ZM1107.43 269.907C1107.55 270.018 1107.67 270.122 1107.81 270.22V263.114C1107.67 263.211 1107.55 263.316 1107.43 263.426C1105.64 265.216 1105.64 268.117 1107.43 269.907ZM1131.8 292.824L1136.82 287.802C1136.66 287.776 1136.5 287.759 1136.33 287.75C1133.8 287.753 1131.75 289.803 1131.75 292.334C1131.76 292.497 1131.77 292.659 1131.8 292.821V292.824ZM1140.18 289.858C1139.83 289.307 1139.36 288.838 1138.81 288.483C1138.79 288.472 1138.77 288.466 1138.76 288.456L1132.46 294.752C1132.47 294.768 1132.48 294.787 1132.49 294.804C1132.84 295.355 1133.31 295.824 1133.86 296.179C1133.88 296.19 1133.9 296.196 1133.91 296.206L1140.21 289.91C1140.2 289.896 1140.19 289.877 1140.18 289.858ZM1140.87 291.844L1135.85 296.866C1136.01 296.891 1136.17 296.908 1136.33 296.917C1138.86 296.914 1140.91 294.863 1140.92 292.334C1140.91 292.17 1140.89 292.007 1140.87 291.846L1140.87 291.844ZM1104.28 267.231C1104.26 267.048 1104.25 266.856 1104.25 266.667C1104.25 263.123 1107.12 260.25 1110.67 260.25C1110.86 260.25 1111.04 260.261 1111.23 260.277L1107.92 256.962L1100.96 263.917L1104.28 267.231ZM1105.17 254.212L1098.21 261.167L1099.67 262.621L1106.62 255.667L1105.17 254.212ZM1129 278.046L1127.81 279.231L1126.52 277.935L1127.7 276.75L1126.25 275.296L1125.06 276.481L1123.77 275.185L1124.95 274L1123.5 272.546L1121.13 274.917L1128.08 281.871L1130.45 279.5L1129 278.046ZM1142.72 291.768C1142.74 291.951 1142.75 292.143 1142.75 292.334C1142.75 295.875 1139.88 298.745 1136.33 298.75C1136.14 298.75 1135.96 298.738 1135.77 298.722L1139.08 302.037L1146.04 295.084L1142.72 291.768ZM1147.33 296.379L1140.38 303.334L1141.83 304.787L1148.79 297.834L1147.33 296.379Z" fill="#333333"/>
<defs>
<clipPath id="clip0">
<rect width="56" height="56" fill="white" transform="translate(1229 417)"/>
</clipPath>
<clipPath id="clip1">
<rect width="55" height="55" fill="white" transform="translate(258 31)"/>
</clipPath>
<clipPath id="clip2">
<rect width="54" height="54" fill="white" transform="translate(262 393)"/>
</clipPath>
<clipPath id="clip3">
<rect width="55" height="55" fill="white" transform="matrix(-1 0 0 1 1717 300)"/>
</clipPath>
<clipPath id="clip4">
<rect width="56" height="56" fill="white" transform="translate(67.598 482) rotate(45)"/>
</clipPath>
<clipPath id="clip5">
<rect width="56" height="56" fill="white" transform="matrix(-0.707107 0.707107 0.707107 0.707107 972.598 370)"/>
</clipPath>
<clipPath id="clip6">
<rect width="55" height="55" fill="white" transform="translate(172.891 234) rotate(45)"/>
</clipPath>
<clipPath id="clip7">
<rect width="55" height="55" fill="white" transform="translate(60.8909 70) rotate(45)"/>
</clipPath>
<clipPath id="clip8">
<rect width="55" height="55" fill="white" transform="translate(1122.89 12) rotate(45)"/>
</clipPath>
<clipPath id="clip9">
<rect width="55" height="55" fill="white" transform="translate(1371.89 241) rotate(45)"/>
</clipPath>
<clipPath id="clip10">
<rect width="56" height="56" fill="white" transform="translate(1760 473)"/>
</clipPath>
<clipPath id="clip11">
<rect width="55" height="55" fill="white" transform="translate(1622 33)"/>
</clipPath>
<clipPath id="clip12">
<rect width="55" height="55" fill="white" transform="matrix(-1 0 0 1 1542 385)"/>
</clipPath>
<clipPath id="clip13">
<rect width="55" height="55" fill="white" transform="translate(1807 172)"/>
</clipPath>
</defs>
</svg>
