<svg width="9" height="10" viewBox="0 0 9 10" fill="none" xmlns="http://www.w3.org/2000/svg">
<path d="M7.69606 6.49625C7.13475 6.01395 6.56351 5.72087 6.00928 6.20317L5.6776 6.4934C5.43521 6.70539 4.98446 7.69276 3.2424 5.67961C1.50034 3.67073 2.5365 3.35773 2.78031 3.14859L3.11341 2.85693C3.6648 2.37463 3.45643 1.76713 3.05813 1.14113L2.81858 0.762685C2.41885 0.139533 1.98228 -0.270211 1.42947 0.210669L1.13038 0.473872C0.885161 0.651713 0.201945 1.23361 0.0361018 2.33764C-0.16376 3.66219 0.46701 5.18023 1.90857 6.84482C3.34871 8.51082 4.7605 9.34738 6.09575 9.33316C7.20562 9.32035 7.8775 8.72281 8.08728 8.50513L8.38636 8.24193C8.93917 7.76105 8.59615 7.27021 8.03342 6.78791L7.69606 6.49625Z" fill="black" fill-opacity="0.87"/>
</svg>
