<svg width="18" height="18" viewBox="0 0 18 18" fill="none" xmlns="http://www.w3.org/2000/svg">
<path d="M9 2.25C6.94766 2.25 5.11137 3.17375 3.87451 4.62451L2.25 3V7.5H6.75L4.94385 5.69385C5.90609 4.5126 7.36118 3.75 9 3.75C11.8942 3.75 14.25 6.105 14.25 9H15.75C15.75 5.2785 12.7222 2.25 9 2.25ZM2.25 9C2.25 12.7222 5.27775 15.75 9 15.75C11.0523 15.75 12.8886 14.8262 14.1255 13.3755L15.75 15V10.5H11.25L13.0562 12.3062C12.0939 13.4874 10.6388 14.25 9 14.25C6.10575 14.25 3.75 11.8942 3.75 9H2.25Z" fill="#0070C9"/>
</svg>
